<svg width="39" height="15" viewBox="0 0 39 15" fill="none" xmlns="http://www.w3.org/2000/svg">
<g clip-path="url(#clip0_2_14945)">
<path d="M1.22009 14.502C1.48051 14.502 1.68233 14.4418 1.82556 14.3213C1.96879 14.2009 2.08597 14.0072 2.17712 13.7403L3.43689 10.2832H9.19861L10.4584 13.7403C10.5495 14.0072 10.6667 14.2009 10.81 14.3213C10.9532 14.4418 11.1517 14.502 11.4057 14.502C11.6661 14.502 11.8728 14.4255 12.0258 14.2725C12.1788 14.1195 12.2553 13.9193 12.2553 13.6719C12.2553 13.5222 12.2194 13.3464 12.1478 13.1446L7.56775 0.957062C7.45056 0.651072 7.29106 0.418324 7.08923 0.258819C6.88741 0.0993142 6.63025 0.0195618 6.31775 0.0195618C5.7253 0.0195618 5.31515 0.328807 5.08728 0.947296L0.507202 13.1543C0.435588 13.3562 0.39978 13.532 0.39978 13.6817C0.39978 13.9291 0.473023 14.1277 0.619507 14.2774C0.765991 14.4271 0.966186 14.502 1.22009 14.502ZM3.9154 8.80863L6.28845 2.23636H6.33728L8.71033 8.80863H3.9154ZM14.9018 14.2188H19.6478C20.683 14.2188 21.57 14.0593 22.309 13.7403C23.0479 13.4213 23.6159 12.9753 24.0131 12.4024C24.4102 11.8295 24.6088 11.1556 24.6088 10.3809C24.6088 9.73636 24.4639 9.16182 24.1742 8.65726C23.8844 8.1527 23.484 7.74417 22.973 7.43168C22.4619 7.11917 21.8711 6.92711 21.2006 6.8555V6.78714C21.7149 6.7025 22.1739 6.50882 22.5775 6.20609C22.9811 5.90335 23.2985 5.52575 23.5297 5.07328C23.7608 4.6208 23.8764 4.13415 23.8764 3.61332C23.8764 2.95576 23.6973 2.37471 23.3393 1.87015C22.9811 1.36559 22.4831 0.968458 21.8451 0.678741C21.2071 0.389028 20.4584 0.244171 19.599 0.244171H14.9018C14.6283 0.244171 14.4102 0.327179 14.2475 0.493194C14.0847 0.65921 14.0033 0.882191 14.0033 1.16214V13.3008C14.0033 13.5807 14.0847 13.8037 14.2475 13.9698C14.4102 14.1358 14.6283 14.2188 14.9018 14.2188ZM15.849 6.2891V1.80668H19.1791C20.071 1.80668 20.7709 1.9971 21.2787 2.37796C21.7865 2.75882 22.0404 3.25849 22.0404 3.87699C22.0404 4.63871 21.7539 5.23115 21.181 5.65433C20.6081 6.07751 19.8073 6.2891 18.7787 6.2891H15.849ZM15.849 12.666V7.74418H19.14C20.2988 7.74418 21.1859 7.96065 21.8012 8.39359C22.4164 8.82653 22.724 9.45316 22.724 10.2735C22.724 11.0157 22.4294 11.6 21.8402 12.0264C21.251 12.4528 20.4062 12.666 19.306 12.666H15.849ZM32.6557 14.4532C33.489 14.4532 34.254 14.3376 34.9506 14.1065C35.6472 13.8754 36.2591 13.5417 36.7865 13.1055C37.3138 12.6693 37.737 12.1387 38.056 11.5137C38.1536 11.3249 38.2301 11.1361 38.2855 10.9473C38.3409 10.7585 38.3686 10.5762 38.3686 10.4004C38.3686 10.1595 38.2904 9.96585 38.1342 9.81937C37.9779 9.67288 37.7826 9.59964 37.5482 9.59964C37.3529 9.59964 37.1934 9.64684 37.0697 9.74125C36.946 9.83565 36.8288 10.0033 36.7182 10.2442C36.4968 10.7976 36.1956 11.2663 35.8148 11.6504C35.434 12.0345 34.9783 12.3259 34.4477 12.5244C33.9171 12.723 33.3197 12.8223 32.6557 12.8223C31.7051 12.8223 30.8816 12.5944 30.185 12.1387C29.4883 11.683 28.9495 11.0352 28.5687 10.1953C28.1879 9.35548 27.9975 8.35615 27.9975 7.1973C27.9975 6.05798 28.1879 5.07165 28.5687 4.23832C28.9495 3.40498 29.4899 2.76371 30.1898 2.31449C30.8896 1.86527 31.7116 1.64066 32.6557 1.64066C33.2807 1.64066 33.8585 1.75459 34.3891 1.98246C34.9197 2.21032 35.3819 2.53421 35.7758 2.95414C36.1696 3.37406 36.4707 3.86396 36.6791 4.42386C36.7897 4.66474 36.9167 4.84053 37.06 4.95121C37.2032 5.06188 37.3789 5.11722 37.5873 5.11722C37.8281 5.11722 38.0234 5.04398 38.1732 4.8975C38.3229 4.75101 38.3978 4.55732 38.3978 4.31644C38.3978 4.06253 38.3424 3.78258 38.2318 3.4766C37.9779 2.76045 37.5743 2.14196 37.0209 1.62113C36.4675 1.10029 35.8148 0.701528 35.0629 0.424835C34.3109 0.148142 33.5085 0.00979614 32.6557 0.00979614C31.3275 0.00979614 30.1768 0.301137 29.2035 0.883819C28.2302 1.4665 27.4783 2.29658 26.9477 3.37406C26.4171 4.45153 26.1518 5.7292 26.1518 7.20707C26.1518 8.69795 26.4171 9.98539 26.9477 11.0694C27.4783 12.1533 28.2302 12.9883 29.2035 13.5743C30.1768 14.1602 31.3275 14.4532 32.6557 14.4532Z" fill="black" fill-opacity="0.85"/>
</g>
<defs>
<clipPath id="clip0_2_14945">
<rect width="37.998" height="14.502" fill="white" transform="translate(0.39978 0.00979614)"/>
</clipPath>
</defs>
</svg>
