<svg width="21" height="17" viewBox="0 0 21 17" fill="var(--icon)" xmlns="http://www.w3.org/2000/svg">
<g clip-path="url(#clip0_2_14876)">
    <path
    d="M1.5434 1.47461H19.7368C19.9451 1.47461 20.1225 1.403 20.269 1.25977C20.4154 1.11654 20.4887 0.940754 20.4887 0.732422C20.4887 0.530599 20.4154 0.358073 20.269 0.214844C20.1225 0.0716147 19.9451 0 19.7368 0H1.5434C1.34157 0 1.16905 0.0716147 1.02582 0.214844C0.882589 0.358073 0.810974 0.530599 0.810974 0.732422C0.810974 0.940754 0.882589 1.11654 1.02582 1.25977C1.16905 1.403 1.34157 1.47461 1.5434 1.47461ZM1.5434 6.5918H12.5298C12.738 6.5918 12.9138 6.52018 13.0571 6.37695C13.2003 6.23372 13.2719 6.05794 13.2719 5.84961C13.2719 5.64128 13.2003 5.46712 13.0571 5.32715C12.9138 5.18718 12.738 5.11719 12.5298 5.11719H1.5434C1.34157 5.11719 1.16905 5.18718 1.02582 5.32715C0.882589 5.46712 0.810974 5.64128 0.810974 5.84961C0.810974 6.05794 0.882589 6.23372 1.02582 6.37695C1.16905 6.52018 1.34157 6.5918 1.5434 6.5918ZM1.5434 11.709H19.7368C19.9451 11.709 20.1225 11.6374 20.269 11.4941C20.4154 11.3509 20.4887 11.1751 20.4887 10.9668C20.4887 10.7585 20.4154 10.5843 20.269 10.4443C20.1225 10.3044 19.9451 10.2344 19.7368 10.2344H1.5434C1.34157 10.2344 1.16905 10.3044 1.02582 10.4443C0.882589 10.5843 0.810974 10.7585 0.810974 10.9668C0.810974 11.1751 0.882589 11.3509 1.02582 11.4941C1.16905 11.6374 1.34157 11.709 1.5434 11.709ZM1.5434 16.8164H12.5298C12.738 16.8164 12.9138 16.7464 13.0571 16.6064C13.2003 16.4665 13.2719 16.2923 13.2719 16.084C13.2719 15.8757 13.2003 15.6999 13.0571 15.5566C12.9138 15.4134 12.738 15.3418 12.5298 15.3418H1.5434C1.34157 15.3418 1.16905 15.4134 1.02582 15.5566C0.882589 15.6999 0.810974 15.8757 0.810974 16.084C0.810974 16.2923 0.882589 16.4665 1.02582 16.6064C1.16905 16.7464 1.34157 16.8164 1.5434 16.8164Z"
    fill="var(--icon)"
    fill-opacity="0.85"
    />
</g>
<defs>
    <clipPath id="clip0_2_14876">
    <rect width="19.6777" height="16.8848" fill="var(--icon)" transform="translate(0.810974)" />
    </clipPath>
</defs>
</svg>