<svg width="20" height="17" viewBox="0 0 20 17" fill="var(--icon)" xmlns="http://www.w3.org/2000/svg">
<g clip-path="url(#clip0_2_14884)">
<path
    d="M0.898743 1.47461H19.0921C19.3005 1.47461 19.4779 1.403 19.6243 1.25977C19.7708 1.11654 19.844 0.940754 19.844 0.732422C19.844 0.530599 19.7708 0.358073 19.6243 0.214844C19.4779 0.0716147 19.3005 0 19.0921 0H0.898743C0.69692 0 0.524394 0.0716147 0.381165 0.214844C0.237935 0.358073 0.166321 0.530599 0.166321 0.732422C0.166321 0.940754 0.237935 1.11654 0.381165 1.25977C0.524394 1.403 0.69692 1.47461 0.898743 1.47461ZM0.898743 11.709H19.0921C19.3005 11.709 19.4779 11.6374 19.6243 11.4941C19.7708 11.3509 19.844 11.1751 19.844 10.9668C19.844 10.7585 19.7708 10.5843 19.6243 10.4443C19.4779 10.3044 19.3005 10.2344 19.0921 10.2344H0.898743C0.69692 10.2344 0.524394 10.3044 0.381165 10.4443C0.237935 10.5843 0.166321 10.7585 0.166321 10.9668C0.166321 11.1751 0.237935 11.3509 0.381165 11.4941C0.524394 11.6374 0.69692 11.709 0.898743 11.709ZM8.11554 6.5918H19.0921C19.3005 6.5918 19.4779 6.52018 19.6243 6.37695C19.7708 6.23372 19.844 6.05794 19.844 5.84961C19.844 5.64128 19.7708 5.46712 19.6243 5.32715C19.4779 5.18718 19.3005 5.11719 19.0921 5.11719H8.11554C7.90721 5.11719 7.73143 5.18718 7.5882 5.32715C7.44497 5.46712 7.37335 5.64128 7.37335 5.84961C7.37335 6.05794 7.44497 6.23372 7.5882 6.37695C7.73143 6.52018 7.90721 6.5918 8.11554 6.5918ZM8.11554 16.8164H19.0921C19.3005 16.8164 19.4779 16.7464 19.6243 16.6064C19.7708 16.4665 19.844 16.2923 19.844 16.084C19.844 15.8757 19.7708 15.6999 19.6243 15.5566C19.4779 15.4134 19.3005 15.3418 19.0921 15.3418H8.11554C7.90721 15.3418 7.73143 15.4134 7.5882 15.5566C7.44497 15.6999 7.37335 15.8757 7.37335 16.084C7.37335 16.2923 7.44497 16.4665 7.5882 16.6064C7.73143 16.7464 7.90721 16.8164 8.11554 16.8164Z"
    fill="var(--icon)"
    fill-opacity="0.85"
/>
</g>
<defs>
<clipPath id="clip0_2_14884">
    <rect width="19.6777" height="16.8848" fill="var(--icon)" transform="translate(0.166321)" />
</clipPath>
</defs>
</svg>