<svg xmlns="http://www.w3.org/2000/svg" width="13" height="14" fill="none"><g clip-path="url(#a)"><path fill="#000" fill-opacity=".85" d="M2.36 13.975h5.087c.996 0 1.859-.165 2.588-.493.73-.33 1.292-.791 1.69-1.387.397-.596.595-1.297.595-2.105 0-.638-.141-1.204-.425-1.699A3.24 3.24 0 0 0 10.714 7.1c-.505-.3-1.09-.466-1.753-.498v-.079a3.375 3.375 0 0 0 1.426-.532c.41-.276.729-.628.957-1.054.228-.427.341-.897.341-1.412 0-.722-.177-1.347-.532-1.875-.355-.527-.857-.932-1.509-1.215C8.994.15 8.215.01 7.31.01H2.36c-.522 0-.927.146-1.217.44C.853.741.71 1.158.71 1.7v10.595c0 .534.145.947.434 1.24.29.293.695.44 1.216.44Zm1.572-2.256V7.842h2.45c.86 0 1.52.163 1.978.488.46.326.689.8.689 1.426 0 .638-.223 1.125-.67 1.46-.445.335-1.088.503-1.928.503h-2.52Zm0-5.908V2.305h2.402c.683 0 1.217.15 1.601.449.385.3.577.716.577 1.25 0 .566-.214 1.01-.64 1.328-.426.32-1.02.479-1.782.479H3.932Z"/></g><defs><clipPath id="a"><path fill="#fff" d="M.709.01h11.61v13.975H.71z"/></clipPath></defs></svg>