<svg width="21" height="20" viewBox="0 0 21 20" fill="none" xmlns="http://www.w3.org/2000/svg">
<g clip-path="url(#clip0_2_17640)">
<path d="M5.77543 11.0156C5.58011 11.0156 5.41735 10.9505 5.28714 10.8203C5.15693 10.6901 5.09183 10.5273 5.09183 10.332C5.09183 10.1432 5.15693 9.98371 5.28714 9.85352C5.41735 9.72331 5.58011 9.6582 5.77543 9.6582H10.1992V3.75C10.1992 3.5612 10.2644 3.40169 10.3946 3.27148C10.5248 3.14127 10.6843 3.07617 10.8731 3.07617C11.0684 3.07617 11.2311 3.14127 11.3614 3.27148C11.4916 3.40169 11.5567 3.5612 11.5567 3.75V10.332C11.5567 10.5273 11.4916 10.6901 11.3614 10.8203C11.2311 10.9505 11.0684 11.0156 10.8731 11.0156H5.77543ZM10.8828 19.9219C12.2436 19.9219 13.5245 19.6615 14.7256 19.1406C15.9268 18.6198 16.9864 17.9004 17.9043 16.9824C18.8223 16.0645 19.5417 15.0049 20.0625 13.8037C20.5834 12.6026 20.8438 11.3216 20.8438 9.96094C20.8438 8.60026 20.5834 7.31933 20.0625 6.11816C19.5417 4.91699 18.8223 3.85742 17.9043 2.93945C16.9864 2.02148 15.9252 1.30208 14.7207 0.78125C13.5163 0.260417 12.2338 0 10.8731 0C9.5124 0 8.23148 0.260417 7.03031 0.78125C5.82913 1.30208 4.77119 2.02148 3.85648 2.93945C2.94176 3.85742 2.22399 4.91699 1.70316 6.11816C1.18232 7.31933 0.921906 8.60026 0.921906 9.96094C0.921906 11.3216 1.18232 12.6026 1.70316 13.8037C2.22399 15.0049 2.94339 16.0645 3.86136 16.9824C4.77933 17.9004 5.8389 18.6198 7.04007 19.1406C8.24124 19.6615 9.52217 19.9219 10.8828 19.9219Z" fill="black" fill-opacity="0.85"/>
</g>
<defs>
<clipPath id="clip0_2_17640">
<rect width="19.9219" height="19.9316" fill="white" transform="translate(0.921906)"/>
</clipPath>
</defs>
</svg>
