<svg width="21" height="25" viewBox="0 0 21 25" fill="none" xmlns="http://www.w3.org/2000/svg">
<g clip-path="url(#clip0_2_3341)">
<path d="M5.51734 5.68946H7.0896V3.375C7.0896 2.88672 7.21818 2.51074 7.47535 2.24707C7.73251 1.9834 8.11499 1.85157 8.62281 1.85157H12.9392V6.86133C12.9392 7.42773 13.0775 7.84766 13.3542 8.1211C13.6309 8.39453 14.0492 8.53125 14.6091 8.53125H19.1794V16.8809C19.1794 17.3692 19.0492 17.7451 18.7888 18.0088C18.5284 18.2725 18.1443 18.4043 17.6365 18.4043H15.7126V19.9766H17.7244C18.7335 19.9766 19.4903 19.7194 19.9949 19.2051C20.4994 18.6908 20.7517 17.9258 20.7517 16.9102V8.98047C20.7517 8.38151 20.6801 7.87369 20.5369 7.45703C20.3936 7.04036 20.1397 6.64323 19.7751 6.26563L14.8435 1.25586C14.4984 0.897786 14.1176 0.645508 13.7009 0.499024C13.2842 0.352539 12.8122 0.279297 12.2849 0.279297H8.54468C7.53556 0.279297 6.77873 0.536458 6.27417 1.05078C5.76961 1.5651 5.51734 2.33008 5.51734 3.34571V5.68946ZM14.3552 6.62696V2.62305L18.7693 7.11524H14.8337C14.6644 7.11524 14.5424 7.0778 14.4675 7.00293C14.3926 6.92806 14.3552 6.80274 14.3552 6.62696ZM0.781006 21.7832C0.781006 22.8053 1.03328 23.5719 1.53784 24.083C2.0424 24.5941 2.79923 24.8496 3.80835 24.8496H12.988C13.9971 24.8496 14.754 24.5924 15.2585 24.0781C15.7631 23.5638 16.0154 22.7988 16.0154 21.7832V14.1563C16.0154 13.7396 15.9926 13.3881 15.947 13.1016C15.9015 12.8151 15.812 12.5531 15.6785 12.3154C15.545 12.0778 15.3481 11.8255 15.0876 11.5586L9.70679 6.08008C9.33569 5.69596 8.97111 5.44531 8.61304 5.32813C8.25496 5.21094 7.80249 5.15235 7.25562 5.15235H3.80835C2.79923 5.15235 2.0424 5.40951 1.53784 5.92383C1.03328 6.43815 0.781006 7.20313 0.781006 8.21875V21.7832ZM2.35328 21.7539V8.23828C2.35328 7.75651 2.48186 7.38379 2.73902 7.12012C2.99618 6.85644 3.37866 6.72461 3.88648 6.72461H7.0896V12.3887C7.0896 13.0072 7.24422 13.4694 7.55347 13.7754C7.86271 14.0814 8.32007 14.2344 8.92554 14.2344H14.4431V21.7539C14.4431 22.2422 14.3129 22.6181 14.0525 22.8818C13.7921 23.1455 13.4112 23.2773 12.9099 23.2773H3.87671C3.37541 23.2773 2.99618 23.1455 2.73902 22.8818C2.48186 22.6181 2.35328 22.2422 2.35328 21.7539ZM9.11109 12.7598C8.91577 12.7598 8.7758 12.7175 8.69117 12.6328C8.60653 12.5482 8.56421 12.4082 8.56421 12.2129V7.08594L14.1404 12.7598H9.11109Z" fill="black" fill-opacity="0.85"/>
</g>
<defs>
<clipPath id="clip0_2_3341">
<rect width="19.9707" height="24.5996" fill="white" transform="translate(0.781006 0.279297)"/>
</clipPath>
</defs>
</svg>
