<svg width="21" height="24" viewBox="0 0 21 24" fill="none" xmlns="http://www.w3.org/2000/svg">
<g clip-path="url(#clip0_2_2849)">
<path d="M4.95298 16.636L8.19516 15.2982C8.31886 15.2526 8.41489 15.2038 8.48325 15.1517C8.55161 15.0996 8.62485 15.0377 8.70298 14.9661L18.0487 5.68878C18.5044 5.23305 18.7307 4.75128 18.7274 4.24347C18.7241 3.73566 18.4914 3.24738 18.0291 2.77863L15.9783 0.708315C15.5096 0.246075 15.0197 0.0100729 14.5086 0.000307309C13.9976 -0.0094583 13.5141 0.213524 13.0584 0.669253L3.70298 9.9466C3.63136 10.0182 3.57113 10.0882 3.52231 10.1566C3.47348 10.2249 3.42302 10.3177 3.37094 10.4349L2.00376 13.6771C1.89959 13.918 1.86215 14.1556 1.89145 14.39C1.92075 14.6243 2.0298 14.8359 2.2186 15.0247L3.60532 16.4212C3.78761 16.6035 3.99594 16.7109 4.23032 16.7435C4.46469 16.776 4.70558 16.7402 4.95298 16.636ZM4.80649 15.1224C4.70883 15.1549 4.62094 15.1679 4.54282 15.1614C4.46469 15.1549 4.38005 15.1061 4.28891 15.015L3.62485 14.3509C3.5337 14.2662 3.48487 14.1832 3.47837 14.1019C3.47185 14.0205 3.48813 13.9342 3.5272 13.8431L4.73813 11.0013L14.0448 1.763C14.188 1.63279 14.3377 1.56443 14.494 1.55792C14.6502 1.55141 14.7934 1.61326 14.9237 1.74347L16.9842 3.82355C17.2642 4.11001 17.2544 4.40298 16.9549 4.70246L7.64829 13.9407L4.80649 15.1224ZM1.14438 17.1243H2.32602C2.46274 17.1243 2.57179 17.108 2.65317 17.0755C2.73455 17.043 2.82732 16.9844 2.93149 16.8997L3.84946 16.1966L2.44321 14.761L0.861175 16.431C0.717947 16.5872 0.675629 16.7418 0.734222 16.8948C0.792816 17.0478 0.929535 17.1243 1.14438 17.1243ZM3.84946 11.0013L7.8436 15.015L8.76157 14.1068L4.76743 10.0833L3.84946 11.0013ZM11.9549 2.96417L15.949 6.97785L16.867 6.07941L12.8729 2.05597L11.9549 2.96417ZM0.949066 20.6107H19.6112C19.826 20.6107 20.0115 20.5326 20.1678 20.3763C20.3241 20.22 20.4022 20.0345 20.4022 19.8196C20.4022 19.6048 20.3241 19.4209 20.1678 19.2679C20.0115 19.1149 19.826 19.0384 19.6112 19.0384H0.949066C0.734222 19.0384 0.550303 19.1149 0.397308 19.2679C0.244313 19.4209 0.167816 19.6048 0.167816 19.8196C0.167816 20.0345 0.244313 20.22 0.397308 20.3763C0.550303 20.5326 0.734222 20.6107 0.949066 20.6107Z" fill="black" fill-opacity="0.85"/>
</g>
<defs>
<clipPath id="clip0_2_2849">
<rect width="20.2344" height="23.36" fill="white" transform="translate(0.167816)"/>
</clipPath>
</defs>
</svg>
