<svg xmlns="http://www.w3.org/2000/svg" width="12" height="14" fill="none"><g clip-path="url(#a)"><path fill="#000" fill-opacity=".85" d="M1.706 13.975h6.172a.815.815 0 0 0 .57-.2.697.697 0 0 0 .22-.543.677.677 0 0 0-.214-.527c-.143-.13-.332-.195-.567-.195H5.7L8.073 1.475h2.187a.802.802 0 0 0 .562-.2.697.697 0 0 0 .22-.543.677.677 0 0 0-.215-.527.795.795 0 0 0-.557-.195H4.07a.796.796 0 0 0-.557.195.677.677 0 0 0-.214.527c0 .228.073.409.22.542.146.134.333.2.56.2h2.188L3.893 12.51H1.696a.796.796 0 0 0-.557.195.678.678 0 0 0-.215.527c0 .228.074.409.22.542.147.134.334.2.562.2Z"/></g><defs><clipPath id="a"><path fill="#fff" d="M.924.01h10.118v13.975H.925z"/></clipPath></defs></svg>