<svg width="21" height="17" viewBox="0 0 21 17" fill="none" xmlns="http://www.w3.org/2000/svg">
<g clip-path="url(#clip0_2_14846)">
<path d="M6.86719 3.30078H19.748C19.9694 3.30078 20.1566 3.22591 20.3095 3.07617C20.4625 2.92643 20.539 2.74088 20.539 2.51953C20.539 2.29818 20.4625 2.111 20.3095 1.95801C20.1566 1.80502 19.9694 1.72852 19.748 1.72852H6.86719C6.64584 1.72852 6.45867 1.80502 6.30567 1.95801C6.15267 2.111 6.07617 2.29818 6.07617 2.51953C6.07617 2.74088 6.15267 2.92643 6.30567 3.07617C6.45867 3.22591 6.64584 3.30078 6.86719 3.30078ZM6.86719 9.20898H19.748C19.9694 9.20898 20.1566 9.13248 20.3095 8.97949C20.4625 8.8265 20.539 8.63932 20.539 8.41797C20.539 8.19662 20.4625 8.01107 20.3095 7.86133C20.1566 7.71159 19.9694 7.63672 19.748 7.63672H6.86719C6.64584 7.63672 6.45867 7.71159 6.30567 7.86133C6.15267 8.01107 6.07617 8.19662 6.07617 8.41797C6.07617 8.63932 6.15267 8.8265 6.30567 8.97949C6.45867 9.13248 6.64584 9.20898 6.86719 9.20898ZM6.86719 15.1074H19.748C19.9694 15.1074 20.1566 15.0325 20.3095 14.8828C20.4625 14.7331 20.539 14.5475 20.539 14.3262C20.539 14.1048 20.4625 13.9176 20.3095 13.7646C20.1566 13.6117 19.9694 13.5352 19.748 13.5352H6.86719C6.64584 13.5352 6.45867 13.6117 6.30567 13.7646C6.15267 13.9176 6.07617 14.1048 6.07617 14.3262C6.07617 14.5475 6.15267 14.7331 6.30567 14.8828C6.45867 15.0325 6.64584 15.1074 6.86719 15.1074Z" fill="black" fill-opacity="0.5"/>
<path d="M2.99024 4.48242C3.17904 4.48242 3.33203 4.42871 3.44922 4.32129C3.5664 4.21387 3.625 4.04948 3.625 3.82812V0.673828C3.625 0.465495 3.55827 0.301107 3.42481 0.180664C3.29134 0.0602213 3.11719 0 2.90235 0C2.73307 0 2.58822 0.0260417 2.46778 0.078125C2.34733 0.130208 2.22526 0.198568 2.10156 0.283203L1.4082 0.761719C1.20638 0.898438 1.10547 1.05469 1.10547 1.23047C1.10547 1.36068 1.14779 1.46484 1.23242 1.54297C1.31706 1.6211 1.41471 1.66016 1.52539 1.66016C1.59049 1.66016 1.64583 1.65202 1.69141 1.63574C1.73698 1.61947 1.79883 1.58203 1.87695 1.52344L2.32617 1.2207H2.34571V3.82812C2.34571 4.04948 2.4043 4.21387 2.52149 4.32129C2.63867 4.42871 2.79492 4.48242 2.99024 4.48242ZM1.41797 10.3711H3.92774C4.06445 10.3711 4.17675 10.3288 4.26465 10.2441C4.35254 10.1595 4.39649 10.0488 4.39649 9.91211C4.39649 9.76237 4.35254 9.64518 4.26465 9.56055C4.17675 9.47591 4.06445 9.43359 3.92774 9.43359H2.53125V9.4043L3.33203 8.75977C3.66406 8.48633 3.90169 8.25033 4.04492 8.05176C4.18815 7.85319 4.25977 7.61068 4.25977 7.32422C4.25977 6.93359 4.10677 6.61784 3.80078 6.37695C3.49479 6.13606 3.07812 6.01562 2.55078 6.01562C2.08203 6.01562 1.69629 6.12304 1.39356 6.33789C1.09082 6.55274 0.939453 6.81641 0.939453 7.12891C0.939453 7.44792 1.11849 7.60742 1.47656 7.60742C1.69792 7.60742 1.86719 7.50976 1.98438 7.31445C2.12109 7.07356 2.3164 6.95312 2.57031 6.95312C2.71354 6.95312 2.83073 6.99544 2.92188 7.08008C3.01302 7.16471 3.0586 7.27539 3.0586 7.41211C3.0586 7.5293 3.01791 7.64811 2.93653 7.76855C2.85514 7.889 2.6875 8.05013 2.4336 8.25195L1.1543 9.30664C0.972005 9.45638 0.880859 9.63867 0.880859 9.85352C0.880859 10.0032 0.929688 10.1269 1.02734 10.2246C1.125 10.3223 1.25521 10.3711 1.41797 10.3711ZM2.57031 16.4551C3.15625 16.4551 3.61035 16.3347 3.93262 16.0938C4.25488 15.8529 4.41602 15.5273 4.41602 15.1172C4.41602 14.8503 4.3265 14.6289 4.14746 14.4531C3.96842 14.2774 3.70964 14.1765 3.3711 14.1504V14.1211C3.61849 14.0755 3.82682 13.9713 3.9961 13.8086C4.16536 13.6459 4.25 13.4213 4.25 13.1348C4.25 12.7637 4.08886 12.4788 3.7666 12.2803C3.44434 12.0817 3.04232 11.9824 2.56055 11.9824C2.30664 11.9824 2.05762 12.0215 1.81348 12.0996C1.56934 12.1777 1.36751 12.2917 1.20801 12.4414C1.0485 12.5911 0.96875 12.7734 0.96875 12.9883C0.96875 13.125 1.01432 13.2373 1.10547 13.3252C1.19661 13.4131 1.31706 13.457 1.4668 13.457C1.57096 13.457 1.65397 13.4375 1.71582 13.3984C1.77767 13.3593 1.8444 13.3008 1.91602 13.2227C2.02669 13.099 2.13248 13.0143 2.2334 12.9688C2.33431 12.9232 2.44336 12.9004 2.56055 12.9004C2.71029 12.9004 2.83561 12.9362 2.93653 13.0078C3.03743 13.0794 3.08789 13.1901 3.08789 13.3398C3.08789 13.4765 3.03255 13.5791 2.92188 13.6475C2.8112 13.7158 2.65495 13.75 2.45313 13.75H2.34571C2.04623 13.75 1.89649 13.89 1.89649 14.1699C1.89649 14.4498 2.04623 14.5898 2.34571 14.5898H2.47266C2.92188 14.5898 3.14649 14.7396 3.14649 15.0391C3.14649 15.1693 3.09115 15.2783 2.98047 15.3662C2.86979 15.4541 2.73307 15.498 2.57031 15.498C2.40104 15.498 2.25293 15.4573 2.12598 15.376C1.99902 15.2946 1.88997 15.2083 1.79883 15.1172C1.74023 15.0651 1.68164 15.0212 1.62305 14.9854C1.56445 14.9495 1.48958 14.9316 1.39844 14.9316C1.24219 14.9316 1.11361 14.9756 1.0127 15.0635C0.911784 15.1514 0.861328 15.2702 0.861328 15.4199C0.861328 15.752 1.04688 16.0075 1.41797 16.1865C1.78906 16.3656 2.17317 16.4551 2.57031 16.4551Z" fill="black" fill-opacity="0.85"/>
</g>
<defs>
<clipPath id="clip0_2_14846">
<rect width="19.6777" height="16.8262" fill="white" transform="translate(0.861328)"/>
</clipPath>
</defs>
</svg>
