<svg width="21" height="17" viewBox="0 0 21 17" fill="none" xmlns="http://www.w3.org/2000/svg">
<g clip-path="url(#clip0_2_14851)">
<path d="M7.13794 2.95539H19.4329C19.6477 2.95539 19.8317 2.88052 19.9847 2.73078C20.1376 2.58104 20.2141 2.39549 20.2141 2.17414C20.2141 1.95279 20.1376 1.76561 19.9847 1.61261C19.8317 1.45962 19.6477 1.38312 19.4329 1.38312H7.13794C6.91659 1.38312 6.72941 1.45962 6.57641 1.61261C6.42342 1.76561 6.34692 1.95279 6.34692 2.17414C6.34692 2.39549 6.42342 2.58104 6.57641 2.73078C6.72941 2.88052 6.91659 2.95539 7.13794 2.95539ZM7.13794 8.86359H19.4329C19.6477 8.86359 19.8317 8.78709 19.9847 8.6341C20.1376 8.48111 20.2141 8.29393 20.2141 8.07257C20.2141 7.85122 20.1376 7.66567 19.9847 7.51593C19.8317 7.36619 19.6477 7.29132 19.4329 7.29132H7.13794C6.91659 7.29132 6.72941 7.36619 6.57641 7.51593C6.42342 7.66567 6.34692 7.85122 6.34692 8.07257C6.34692 8.29393 6.42342 8.48111 6.57641 8.6341C6.72941 8.78709 6.91659 8.86359 7.13794 8.86359ZM7.13794 14.762H19.4329C19.6477 14.762 19.8317 14.6871 19.9847 14.5374C20.1376 14.3877 20.2141 14.2021 20.2141 13.9808C20.2141 13.7594 20.1376 13.5722 19.9847 13.4193C19.8317 13.2663 19.6477 13.1898 19.4329 13.1898H7.13794C6.91659 13.1898 6.72941 13.2663 6.57641 13.4193C6.42342 13.5722 6.34692 13.7594 6.34692 13.9808C6.34692 14.2021 6.42342 14.3877 6.57641 14.5374C6.72941 14.6871 6.91659 14.762 7.13794 14.762Z" fill="black" fill-opacity="0.5"/>
<path d="M1.66919 3.7757L2.50903 3.16046L3.31958 3.7757C3.41724 3.84731 3.51164 3.87498 3.60278 3.85871C3.69393 3.84243 3.76229 3.79686 3.80786 3.72199C3.85344 3.64712 3.85669 3.55434 3.81762 3.44367L3.49536 2.44757L4.31567 1.83234C4.40031 1.76723 4.44751 1.69074 4.45727 1.60285C4.46704 1.51496 4.44425 1.43846 4.38891 1.37336C4.33358 1.30825 4.25383 1.2757 4.14966 1.2757H3.12427L2.78247 0.211246C2.75643 0.1201 2.70435 0.0582511 2.62622 0.025699C2.5481 -0.00685307 2.46834 -0.00848067 2.38696 0.0208162C2.30558 0.0501131 2.25187 0.11359 2.22583 0.211246L1.88403 1.2757H0.848877C0.74471 1.2757 0.664957 1.30825 0.609619 1.37336C0.554281 1.43846 0.531494 1.51496 0.54126 1.60285C0.551025 1.69074 0.598226 1.76723 0.682862 1.83234L1.51294 2.44757L1.19067 3.44367C1.15161 3.55434 1.15487 3.64712 1.20044 3.72199C1.24601 3.79686 1.31274 3.84243 1.40063 3.85871C1.48853 3.87498 1.57804 3.84731 1.66919 3.7757ZM1.66919 9.66437L2.50903 9.04914L3.31958 9.66437C3.41724 9.73598 3.51164 9.76365 3.60278 9.74738C3.69393 9.7311 3.76229 9.68553 3.80786 9.61066C3.85344 9.53579 3.85669 9.44302 3.81762 9.33234L3.49536 8.33625L4.31567 7.72101C4.40031 7.65591 4.44751 7.58104 4.45727 7.4964C4.46704 7.41177 4.44425 7.3369 4.38891 7.27179C4.33358 7.20669 4.25383 7.17414 4.14966 7.17414H3.12427L2.78247 6.09992C2.75643 6.00877 2.70435 5.94692 2.62622 5.91437C2.5481 5.88182 2.46834 5.88182 2.38696 5.91437C2.30558 5.94692 2.25187 6.00877 2.22583 6.09992L1.88403 7.17414H0.848877C0.74471 7.17414 0.664957 7.20669 0.609619 7.27179C0.554281 7.3369 0.531494 7.41177 0.54126 7.4964C0.551025 7.58104 0.598226 7.65591 0.682862 7.72101L1.51294 8.33625L1.19067 9.33234C1.15161 9.44302 1.15487 9.53579 1.20044 9.61066C1.24601 9.68553 1.31274 9.7311 1.40063 9.74738C1.48853 9.76365 1.57804 9.73598 1.66919 9.66437ZM1.66919 15.5823L2.50903 14.9671L3.31958 15.5823C3.41724 15.654 3.51164 15.6816 3.60278 15.6653C3.69393 15.649 3.76229 15.6035 3.80786 15.5286C3.85344 15.4537 3.85669 15.361 3.81762 15.2503L3.49536 14.2542L4.31567 13.639C4.40031 13.5739 4.44751 13.4974 4.45727 13.4095C4.46704 13.3216 4.44425 13.2468 4.38891 13.1849C4.33358 13.123 4.25383 13.0921 4.14966 13.0921H3.12427L2.78247 12.0179C2.75643 11.9268 2.70435 11.8649 2.62622 11.8323C2.5481 11.7998 2.46834 11.7998 2.38696 11.8323C2.30558 11.8649 2.25187 11.9268 2.22583 12.0179L1.88403 13.0921H0.848877C0.74471 13.0921 0.664957 13.123 0.609619 13.1849C0.554281 13.2468 0.531494 13.3216 0.54126 13.4095C0.551025 13.4974 0.598226 13.5739 0.682862 13.639L1.51294 14.2542L1.19067 15.2503C1.15161 15.361 1.15487 15.4537 1.20044 15.5286C1.24601 15.6035 1.31274 15.649 1.40063 15.6653C1.48853 15.6816 1.57804 15.654 1.66919 15.5823Z" fill="black" fill-opacity="0.85"/>
</g>
<defs>
<clipPath id="clip0_2_14851">
<rect width="19.675" height="16.1354" fill="white" transform="translate(0.539062)"/>
</clipPath>
</defs>
</svg>
