<svg width="21" height="15" viewBox="0 0 21 15" fill="none" xmlns="http://www.w3.org/2000/svg">
<g clip-path="url(#clip0_2_14836)">
<path d="M6.89258 2.37417H19.5195C19.7409 2.37417 19.9281 2.2993 20.081 2.14956C20.234 1.99982 20.3105 1.81428 20.3105 1.59292C20.3105 1.37157 20.234 1.1844 20.081 1.0314C19.9281 0.878408 19.7409 0.80191 19.5195 0.80191H6.89258C6.67122 0.80191 6.48405 0.878408 6.33105 1.0314C6.17806 1.1844 6.10156 1.37157 6.10156 1.59292C6.10156 1.81428 6.17806 1.99982 6.33105 2.14956C6.48405 2.2993 6.67122 2.37417 6.89258 2.37417ZM6.89258 8.28238H19.5195C19.7409 8.28238 19.9281 8.20588 20.081 8.05288C20.234 7.89989 20.3105 7.71272 20.3105 7.49136C20.3105 7.27001 20.234 7.08446 20.081 6.93472C19.9281 6.78498 19.7409 6.71011 19.5195 6.71011H6.89258C6.67122 6.71011 6.48405 6.78498 6.33105 6.93472C6.17806 7.08446 6.10156 7.27001 6.10156 7.49136C6.10156 7.71272 6.17806 7.89989 6.33105 8.05288C6.48405 8.20588 6.67122 8.28238 6.89258 8.28238ZM6.89258 14.1808H19.5195C19.7409 14.1808 19.9281 14.1059 20.081 13.9562C20.234 13.8065 20.3105 13.6209 20.3105 13.3996C20.3105 13.1782 20.234 12.991 20.081 12.838C19.9281 12.685 19.7409 12.6085 19.5195 12.6085H6.89258C6.67122 12.6085 6.48405 12.685 6.33105 12.838C6.17806 12.991 6.10156 13.1782 6.10156 13.3996C6.10156 13.6209 6.17806 13.8065 6.33105 13.9562C6.48405 14.1059 6.67122 14.1808 6.89258 14.1808Z" fill="black" fill-opacity="0.5"/>
<path d="M1.42383 3.05777L3.16211 2.02261C3.26628 1.9575 3.33464 1.87124 3.36719 1.76382C3.39974 1.6564 3.39811 1.55061 3.3623 1.44644C3.3265 1.34227 3.25977 1.26089 3.16211 1.2023L1.42383 0.147612C1.22852 0.0239145 1.04785 -0.00863755 0.881836 0.0499562C0.71582 0.10855 0.632812 0.255035 0.632812 0.489409V2.71597C0.632812 2.93732 0.717448 3.0773 0.886719 3.13589C1.05599 3.19448 1.23503 3.16844 1.42383 3.05777ZM1.42383 8.94644L3.16211 7.91128C3.26628 7.85269 3.33464 7.76968 3.36719 7.66226C3.39974 7.55484 3.39811 7.44742 3.3623 7.33999C3.3265 7.23257 3.25977 7.14956 3.16211 7.09097L1.42383 6.03628C1.22852 5.9191 1.04785 5.88817 0.881836 5.94351C0.71582 5.99885 0.632812 6.14371 0.632812 6.37808V8.60464C0.632812 8.83251 0.717448 8.97411 0.886719 9.02945C1.05599 9.08478 1.23503 9.05711 1.42383 8.94644ZM1.42383 14.8644L3.16211 13.8293C3.26628 13.7707 3.33464 13.6877 3.36719 13.5802C3.39974 13.4728 3.39811 13.3654 3.3623 13.258C3.3265 13.1505 3.25977 13.0675 3.16211 13.0089L1.42383 11.9543C1.22852 11.8371 1.04785 11.8062 0.881836 11.8615C0.71582 11.9168 0.632812 12.0617 0.632812 12.296V14.5226C0.632812 14.7439 0.717448 14.8839 0.886719 14.9425C1.05599 15.0011 1.23503 14.9751 1.42383 14.8644Z" fill="black" fill-opacity="0.85"/>
</g>
<defs>
<clipPath id="clip0_2_14836">
<rect width="19.6777" height="14.973" fill="white" transform="translate(0.632812)"/>
</clipPath>
</defs>
</svg>
