<svg width="20" height="15" viewBox="0 0 20 15" fill="none" xmlns="http://www.w3.org/2000/svg">
<g clip-path="url(#clip0_2_14822)">
<path d="M5.65818 2.03125H18.998C19.2194 2.03125 19.4066 1.95638 19.5595 1.80664C19.7125 1.6569 19.789 1.47135 19.789 1.25C19.789 1.02865 19.7125 0.841472 19.5595 0.688477C19.4066 0.535482 19.2194 0.458984 18.998 0.458984H5.65818C5.43682 0.458984 5.24964 0.535482 5.09665 0.688477C4.94365 0.841472 4.86716 1.02865 4.86716 1.25C4.86716 1.47135 4.94365 1.6569 5.09665 1.80664C5.24964 1.95638 5.43682 2.03125 5.65818 2.03125ZM5.65818 7.93945H18.998C19.2194 7.93945 19.4066 7.86295 19.5595 7.70996C19.7125 7.55697 19.789 7.36979 19.789 7.14844C19.789 6.92709 19.7125 6.74154 19.5595 6.5918C19.4066 6.44206 19.2194 6.36719 18.998 6.36719H5.65818C5.43682 6.36719 5.24964 6.44206 5.09665 6.5918C4.94365 6.74154 4.86716 6.92709 4.86716 7.14844C4.86716 7.36979 4.94365 7.55697 5.09665 7.70996C5.24964 7.86295 5.43682 7.93945 5.65818 7.93945ZM5.65818 13.8379H18.998C19.2194 13.8379 19.4066 13.763 19.5595 13.6133C19.7125 13.4636 19.789 13.278 19.789 13.0566C19.789 12.8353 19.7125 12.6481 19.5595 12.4951C19.4066 12.3421 19.2194 12.2656 18.998 12.2656H5.65818C5.43682 12.2656 5.24964 12.3421 5.09665 12.4951C4.94365 12.6481 4.86716 12.8353 4.86716 13.0566C4.86716 13.278 4.94365 13.4636 5.09665 13.6133C5.24964 13.763 5.43682 13.8379 5.65818 13.8379Z" fill="black" fill-opacity="0.5"/>
<path d="M1.34177 2.4707C1.68031 2.4707 1.97002 2.35189 2.21091 2.11426C2.45179 1.87663 2.57224 1.58854 2.57224 1.25C2.57224 0.904948 2.45179 0.613607 2.21091 0.375977C1.97002 0.138347 1.68031 0.0195312 1.34177 0.0195312C1.00322 0.0195312 0.713511 0.138347 0.472626 0.375977C0.23174 0.613607 0.111298 0.904948 0.111298 1.25C0.111298 1.58854 0.23174 1.87663 0.472626 2.11426C0.713511 2.35189 1.00322 2.4707 1.34177 2.4707ZM1.34177 8.37891C1.68031 8.37891 1.97002 8.25847 2.21091 8.01758C2.45179 7.77669 2.57224 7.48698 2.57224 7.14844C2.57224 6.80989 2.45179 6.52018 2.21091 6.2793C1.97002 6.03841 1.68031 5.91797 1.34177 5.91797C1.00322 5.91797 0.713511 6.03841 0.472626 6.2793C0.23174 6.52018 0.111298 6.80989 0.111298 7.14844C0.111298 7.48698 0.23174 7.77669 0.472626 8.01758C0.713511 8.25847 1.00322 8.37891 1.34177 8.37891ZM1.34177 14.2871C1.68031 14.2871 1.97002 14.1667 2.21091 13.9258C2.45179 13.6849 2.57224 13.3952 2.57224 13.0566C2.57224 12.7116 2.45179 12.4203 2.21091 12.1826C1.97002 11.945 1.68031 11.8262 1.34177 11.8262C1.00322 11.8262 0.713511 11.945 0.472626 12.1826C0.23174 12.4203 0.111298 12.7116 0.111298 13.0566C0.111298 13.3952 0.23174 13.6849 0.472626 13.9258C0.713511 14.1667 1.00322 14.2871 1.34177 14.2871Z" fill="black" fill-opacity="0.85"/>
</g>
<defs>
<clipPath id="clip0_2_14822">
<rect width="19.6777" height="14.2871" fill="white" transform="translate(0.111298)"/>
</clipPath>
</defs>
</svg>
