<svg width="20" height="22" viewBox="0 0 20 22" fill="none" xmlns="http://www.w3.org/2000/svg">
<g clip-path="url(#clip0_2_17400)">
<path d="M8.59485 20.9375C9.78628 20.9375 10.8898 20.7454 11.9054 20.3613C12.921 19.9772 13.8113 19.4239 14.5763 18.7012C15.3413 17.9785 15.9419 17.1061 16.3781 16.084C16.4692 15.8757 16.505 15.6917 16.4855 15.5322C16.466 15.3727 16.4074 15.2442 16.3097 15.1465C16.225 15.0618 16.1111 15.0114 15.9679 14.9951C15.8247 14.9788 15.6685 15.0065 15.4992 15.0781C15.1281 15.2214 14.7163 15.3337 14.2638 15.415C13.8113 15.4964 13.3051 15.5371 12.7452 15.5371C11.2869 15.5371 10.0206 15.2506 8.94641 14.6777C7.87219 14.1048 7.04049 13.2943 6.45129 12.2461C5.8621 11.1979 5.5675 9.95766 5.5675 8.52539C5.5675 7.93294 5.61796 7.36654 5.71887 6.82618C5.81979 6.28581 5.94511 5.85938 6.09485 5.54688C6.29016 5.16276 6.29016 4.85677 6.09485 4.62891C6.00371 4.52474 5.87675 4.45964 5.71399 4.4336C5.55123 4.40755 5.35592 4.4401 5.12805 4.53125C4.12545 4.93489 3.24491 5.53385 2.48645 6.32813C1.72799 7.12239 1.13391 8.05013 0.704223 9.11133C0.274536 10.1725 0.0596924 11.3086 0.0596924 12.5195C0.0596924 13.7109 0.266398 14.8177 0.679809 15.8398C1.09322 16.862 1.68078 17.7539 2.4425 18.5156C3.20422 19.2773 4.10592 19.8714 5.14758 20.2979C6.18925 20.7243 7.33834 20.9375 8.59485 20.9375ZM8.61438 19.4531C7.57272 19.4531 6.62057 19.2757 5.75793 18.9209C4.89531 18.5661 4.14986 18.0697 3.5216 17.4316C2.89335 16.7936 2.40833 16.0465 2.06653 15.1904C1.72473 14.3343 1.55383 13.405 1.55383 12.4023C1.55383 11.5885 1.67428 10.8105 1.91516 10.0684C2.15605 9.32617 2.49785 8.6442 2.94055 8.02246C3.38326 7.40072 3.90735 6.85873 4.51281 6.39649C4.38912 6.71549 4.29472 7.10286 4.22961 7.5586C4.16451 8.01432 4.13196 8.47656 4.13196 8.94532C4.13196 10.5469 4.47701 11.9499 5.16711 13.1543C5.85722 14.3587 6.82076 15.2962 8.05774 15.9668C9.29472 16.6374 10.7335 16.9727 12.3742 16.9727C12.8104 16.9727 13.2157 16.9483 13.59 16.8994C13.9643 16.8506 14.2557 16.7904 14.464 16.7188C14.0603 17.2852 13.5574 17.7718 12.9552 18.1787C12.353 18.5856 11.6824 18.8998 10.9435 19.1211C10.2046 19.3424 9.42818 19.4531 8.61438 19.4531ZM15.8409 12.0117C16.0362 12.0117 16.1469 11.9075 16.173 11.6992C16.2511 11.0417 16.3358 10.529 16.4269 10.1611C16.518 9.7933 16.6596 9.51498 16.8517 9.32618C17.0438 9.13737 17.3286 8.99414 17.7062 8.89649C18.0838 8.79883 18.6046 8.69791 19.2687 8.59375C19.49 8.55469 19.6007 8.44401 19.6007 8.26172C19.6007 8.07942 19.503 7.96875 19.3077 7.92969C18.6437 7.80599 18.118 7.69368 17.7306 7.59278C17.3432 7.49186 17.0519 7.35026 16.8566 7.16797C16.6613 6.98567 16.518 6.71386 16.4269 6.35254C16.3358 5.99121 16.2511 5.48177 16.173 4.82422C16.1469 4.61588 16.0362 4.51172 15.8409 4.51172C15.6456 4.51172 15.535 4.61263 15.5089 4.81446C15.4243 5.47852 15.338 5.99772 15.2501 6.37207C15.1622 6.74642 15.0223 7.02962 14.8302 7.22168C14.6381 7.41374 14.35 7.55697 13.9659 7.65137C13.5818 7.74577 13.0513 7.83854 12.3742 7.92969C12.2895 7.94271 12.2195 7.97851 12.1642 8.03711C12.1089 8.0957 12.0812 8.17057 12.0812 8.26172C12.0812 8.44401 12.1789 8.55469 12.3742 8.59375C13.0513 8.71745 13.5818 8.83138 13.9659 8.93555C14.35 9.03971 14.6381 9.18457 14.8302 9.37012C15.0223 9.55566 15.1622 9.83073 15.2501 10.1953C15.338 10.5599 15.4243 11.0677 15.5089 11.7188C15.522 11.8034 15.5578 11.8734 15.6163 11.9287C15.6749 11.984 15.7498 12.0117 15.8409 12.0117ZM11.173 5.40039C11.2837 5.40039 11.3488 5.34179 11.3683 5.22461C11.4464 4.82096 11.5164 4.50358 11.5783 4.27246C11.6401 4.04134 11.728 3.86556 11.8419 3.74512C11.9558 3.62468 12.1316 3.53028 12.3693 3.46192C12.6069 3.39356 12.9373 3.31706 13.3605 3.23242C13.4842 3.21289 13.546 3.14453 13.546 3.02735C13.546 2.91667 13.4842 2.85156 13.3605 2.83203C12.9373 2.74089 12.6101 2.66114 12.379 2.59278C12.1479 2.52442 11.9754 2.43001 11.8615 2.30957C11.7476 2.18913 11.6597 2.01497 11.5978 1.78711C11.5359 1.55924 11.4594 1.24349 11.3683 0.839844C11.3488 0.716146 11.2837 0.654297 11.173 0.654297C11.0623 0.654297 10.994 0.716146 10.9679 0.839844C10.8832 1.24349 10.81 1.55924 10.7482 1.78711C10.6863 2.01497 10.5984 2.18913 10.4845 2.30957C10.3706 2.43001 10.198 2.52442 9.96692 2.59278C9.7358 2.66114 9.40865 2.74089 8.98547 2.83203C8.86177 2.85156 8.79992 2.91667 8.79992 3.02735C8.79992 3.14453 8.86177 3.21289 8.98547 3.23242C9.40865 3.32356 9.73743 3.40332 9.9718 3.47168C10.2062 3.54004 10.382 3.63281 10.4992 3.75C10.6163 3.86718 10.7042 4.04134 10.7628 4.27246C10.8214 4.50358 10.8898 4.82096 10.9679 5.22461C10.994 5.34179 11.0623 5.40039 11.173 5.40039Z" fill="black" fill-opacity="0.85"/>
</g>
<defs>
<clipPath id="clip0_2_17400">
<rect width="19.541" height="21.2598" fill="white" transform="translate(0.0596924 0.654297)"/>
</clipPath>
</defs>
</svg>
