<svg width="21" height="22" viewBox="0 0 21 22" fill="none" xmlns="http://www.w3.org/2000/svg">
<g clip-path="url(#clip0_2_17404)">
<path d="M9.03146 20.9375C10.2099 20.9375 11.3004 20.7487 12.303 20.3711C13.3056 19.9935 14.1845 19.4483 14.9397 18.7354C15.6949 18.0225 16.2906 17.1582 16.7268 16.1426C16.883 15.778 16.8668 15.5013 16.678 15.3125C16.5217 15.1562 16.2873 15.14 15.9749 15.2637C15.5712 15.42 15.1382 15.5371 14.676 15.6152C14.2138 15.6933 13.7157 15.7324 13.1819 15.7324C11.7105 15.7324 10.4296 15.4411 9.33908 14.8584C8.24859 14.2757 7.40386 13.4538 6.8049 12.3926C6.20594 11.3314 5.90646 10.0749 5.90646 8.62305C5.90646 8.06966 5.95529 7.51302 6.05294 6.95313C6.1506 6.39323 6.28081 5.94401 6.44357 5.60547C6.61935 5.25391 6.62261 4.98047 6.45334 4.78516C6.28407 4.58333 6.00087 4.56054 5.60373 4.7168C4.60113 5.11393 3.72547 5.70638 2.97677 6.49414C2.22808 7.2819 1.64377 8.20149 1.22385 9.25293C0.803925 10.3044 0.593964 11.4258 0.593964 12.6172C0.593964 13.8086 0.800669 14.9089 1.21408 15.918C1.62749 16.9271 2.2118 17.8076 2.96701 18.5596C3.72222 19.3115 4.61415 19.8958 5.64279 20.3125C6.67144 20.7292 7.801 20.9375 9.03146 20.9375ZM16.3752 12.0117C16.5705 12.0117 16.6812 11.9075 16.7073 11.6992C16.7854 11.0417 16.87 10.529 16.9612 10.1611C17.0523 9.7933 17.1939 9.51498 17.386 9.32618C17.578 9.13737 17.8629 8.99414 18.2405 8.89649C18.6181 8.79883 19.1389 8.69791 19.803 8.59375C20.0243 8.55469 20.135 8.44401 20.135 8.26172C20.135 8.07942 20.0373 7.96875 19.842 7.92969C19.178 7.80599 18.6523 7.69368 18.2649 7.59278C17.8775 7.49186 17.5861 7.35026 17.3909 7.16797C17.1955 6.98567 17.0523 6.71386 16.9612 6.35254C16.87 5.99121 16.7854 5.48177 16.7073 4.82422C16.6812 4.61588 16.5705 4.51172 16.3752 4.51172C16.1799 4.51172 16.0692 4.61263 16.0432 4.81446C15.9586 5.47852 15.8723 5.99772 15.7844 6.37207C15.6965 6.74642 15.5565 7.02962 15.3645 7.22168C15.1724 7.41374 14.8843 7.55697 14.5002 7.65137C14.1161 7.74577 13.5855 7.83854 12.9085 7.92969C12.8238 7.94271 12.7538 7.97851 12.6985 8.03711C12.6431 8.0957 12.6155 8.17057 12.6155 8.26172C12.6155 8.44401 12.7131 8.55469 12.9085 8.59375C13.5855 8.71745 14.1161 8.83138 14.5002 8.93555C14.8843 9.03971 15.1724 9.18457 15.3645 9.37012C15.5565 9.55566 15.6965 9.83073 15.7844 10.1953C15.8723 10.5599 15.9586 11.0677 16.0432 11.7188C16.0562 11.8034 16.092 11.8734 16.1506 11.9287C16.2092 11.984 16.284 12.0117 16.3752 12.0117ZM11.7073 5.40039C11.8179 5.40039 11.883 5.34179 11.9026 5.22461C11.9807 4.82096 12.0507 4.50358 12.1126 4.27246C12.1744 4.04134 12.2622 3.86556 12.3762 3.74512C12.4901 3.62468 12.6659 3.53028 12.9036 3.46192C13.1412 3.39356 13.4716 3.31706 13.8948 3.23242C14.0184 3.21289 14.0803 3.14453 14.0803 3.02735C14.0803 2.91667 14.0184 2.85156 13.8948 2.83203C13.4716 2.74089 13.1444 2.66114 12.9133 2.59278C12.6822 2.52442 12.5097 2.43001 12.3958 2.30957C12.2818 2.18913 12.1939 2.01497 12.1321 1.78711C12.0702 1.55924 11.9937 1.24349 11.9026 0.839844C11.883 0.716146 11.8179 0.654297 11.7073 0.654297C11.5966 0.654297 11.5282 0.716146 11.5022 0.839844C11.4175 1.24349 11.3443 1.55924 11.2825 1.78711C11.2206 2.01497 11.1327 2.18913 11.0188 2.30957C10.9048 2.43001 10.7323 2.52442 10.5012 2.59278C10.2701 2.66114 9.94292 2.74089 9.51974 2.83203C9.39604 2.85156 9.33419 2.91667 9.33419 3.02735C9.33419 3.14453 9.39604 3.21289 9.51974 3.23242C9.94292 3.32356 10.2717 3.40332 10.5061 3.47168C10.7405 3.54004 10.9163 3.63281 11.0335 3.75C11.1506 3.86718 11.2385 4.04134 11.2971 4.27246C11.3557 4.50358 11.424 4.82096 11.5022 5.22461C11.5282 5.34179 11.5966 5.40039 11.7073 5.40039Z" fill="white"/>
</g>
<defs>
<clipPath id="clip0_2_17404">
<rect width="19.541" height="21.2598" fill="white" transform="translate(0.593964 0.654297)"/>
</clipPath>
</defs>
</svg>
