<svg width="19" height="22" viewBox="0 0 19 22" fill="none" xmlns="http://www.w3.org/2000/svg">
<g clip-path="url(#clip0_2_3592)">
<path d="M16.2854 11.771L9.10772 18.9487C8.48272 19.5737 7.81052 19.979 7.09112 20.1645C6.37172 20.35 5.66534 20.3403 4.97198 20.1352C4.27862 19.9301 3.66501 19.5574 3.13116 19.0171C2.5973 18.4832 2.22784 17.8712 2.02276 17.1811C1.81768 16.491 1.80792 15.7863 1.99347 15.0669C2.17901 14.3475 2.58103 13.6753 3.19952 13.0503L12.9944 3.26511C13.3655 2.88751 13.7822 2.62384 14.2444 2.4741C14.7067 2.32436 15.1657 2.29507 15.6214 2.38621C16.0771 2.47736 16.484 2.69871 16.8421 3.05027C17.2002 3.41485 17.4248 3.82338 17.5159 4.27585C17.6071 4.72833 17.5761 5.18569 17.4231 5.64793C17.2701 6.11017 17.0081 6.52683 16.637 6.89793L7.06671 16.4682C6.82582 16.7156 6.57517 16.8214 6.31475 16.7856C6.05434 16.7498 5.83949 16.6505 5.67022 16.4878C5.50095 16.3185 5.40004 16.1037 5.36749 15.8432C5.33494 15.5828 5.4391 15.3289 5.67999 15.0815L12.3694 8.4116C12.5126 8.26186 12.5891 8.09096 12.5989 7.8989C12.6087 7.70685 12.5419 7.53921 12.3987 7.39597C12.2555 7.25925 12.0879 7.19415 11.8958 7.20066C11.7038 7.20718 11.5361 7.2853 11.3928 7.43503L4.6839 14.144C4.35186 14.4761 4.13214 14.8504 4.02472 15.2671C3.91729 15.6838 3.91403 16.0939 4.01495 16.4975C4.11586 16.9012 4.3128 17.2495 4.60577 17.5425C4.92478 17.8615 5.28611 18.0714 5.68975 18.1723C6.09339 18.2732 6.49867 18.2651 6.90558 18.1479C7.31248 18.0307 7.68194 17.8061 8.01397 17.4741L17.6233 7.86472C18.2353 7.25274 18.639 6.59845 18.8342 5.90183C19.0296 5.20522 19.0361 4.52163 18.8538 3.85105C18.6715 3.18048 18.3134 2.57827 17.7796 2.04441C17.2653 1.53009 16.6712 1.18016 15.9973 0.994609C15.3235 0.809062 14.6351 0.81069 13.9319 0.999492C13.2288 1.18829 12.5712 1.58868 11.9592 2.20066L2.11554 12.0542C1.51007 12.6597 1.0641 13.314 0.777643 14.0171C0.491185 14.7202 0.354467 15.4347 0.367487 16.1606C0.380508 16.8865 0.530248 17.588 0.816706 18.2651C1.10316 18.9422 1.51983 19.5509 2.06671 20.0913C2.60707 20.6316 3.21579 21.0467 3.89288 21.3364C4.56996 21.6261 5.27145 21.7759 5.99737 21.7856C6.72328 21.7954 7.4378 21.6571 8.14093 21.3706C8.84405 21.0841 9.49834 20.6414 10.1038 20.0425L17.3303 12.8159C17.4736 12.6727 17.5452 12.4937 17.5452 12.2788C17.5452 12.0639 17.4704 11.8881 17.3206 11.7514C17.1839 11.5952 17.013 11.5252 16.8079 11.5415C16.6029 11.5578 16.4287 11.6343 16.2854 11.771Z" fill="#8E8E93"/>
</g>
<defs>
<clipPath id="clip0_2_3592">
<rect width="18.6192" height="21.2119" fill="white" transform="translate(0.366638 0.574219)"/>
</clipPath>
</defs>
</svg>
