<svg xmlns="http://www.w3.org/2000/svg" width="16" height="16" fill="none"><g clip-path="url(#a)"><path fill="#000" fill-opacity=".85" d="M2.669 14.924 13.323 4.279 11.614 2.56.95 13.215l-.928 2.168c-.045.117-.02.226.073.327.095.1.2.128.318.083l2.256-.87ZM14.182 3.439l.987-.967c.247-.253.377-.507.39-.761.013-.254-.09-.495-.312-.723l-.332-.332c-.221-.221-.46-.322-.718-.303-.257.02-.51.15-.757.391l-.986.977 1.728 1.718Z"/></g><defs><clipPath id="a"><path fill="#fff" d="M0 0h15.56v15.814H0z"/></clipPath></defs></svg>