<svg width="23" height="22" viewBox="0 0 23 22" fill="none" xmlns="http://www.w3.org/2000/svg">
<g clip-path="url(#clip0_2_5935)">
<path d="M3.48645 18.457H5.42004V16.9824H3.46691C3.03072 16.9824 2.70357 16.8717 2.48547 16.6504C2.26737 16.4291 2.15832 16.1035 2.15832 15.6738V6.37695C2.15832 5.94726 2.26737 5.62174 2.48547 5.40039C2.70357 5.17904 3.03072 5.06836 3.46691 5.06836H19.756C20.1857 5.06836 20.5112 5.17904 20.7325 5.40039C20.9539 5.62174 21.0646 5.94726 21.0646 6.37695V15.6738C21.0646 16.1035 20.9539 16.4291 20.7325 16.6504C20.5112 16.8717 20.1857 16.9824 19.756 16.9824H17.9298V18.457H19.7365C20.687 18.457 21.408 18.2178 21.8995 17.7393C22.391 17.2608 22.6368 16.5462 22.6368 15.5957V6.45508C22.6368 5.50456 22.391 4.79004 21.8995 4.31152C21.408 3.83301 20.687 3.59375 19.7365 3.59375H3.48645C2.5815 3.59375 1.87024 3.83301 1.35266 4.31152C0.835083 4.79004 0.576294 5.50456 0.576294 6.45508V15.5957C0.576294 16.5462 0.82369 17.2608 1.31848 17.7393C1.81328 18.2178 2.53593 18.457 3.48645 18.457ZM6.37707 21.3574H16.8361C17.4546 21.3574 17.92 21.2077 18.2325 20.9082C18.545 20.6087 18.7013 20.1367 18.7013 19.4922V11.5234C18.7013 10.8724 18.545 10.3988 18.2325 10.1025C17.92 9.8063 17.4546 9.6582 16.8361 9.6582H6.37707C5.78463 9.6582 5.32564 9.8063 5.00012 10.1025C4.6746 10.3988 4.51184 10.8724 4.51184 11.5234V19.4922C4.51184 20.1367 4.66809 20.6087 4.98059 20.9082C5.29309 21.2077 5.75859 21.3574 6.37707 21.3574ZM6.86535 19.8828C6.60494 19.8828 6.40963 19.8193 6.27941 19.6924C6.14921 19.5655 6.0841 19.3685 6.0841 19.1016V11.9043C6.0841 11.6439 6.14921 11.4502 6.27941 11.3232C6.40963 11.1963 6.60494 11.1328 6.86535 11.1328H16.3575C16.618 11.1328 16.8117 11.1963 16.9386 11.3232C17.0655 11.4502 17.129 11.6439 17.129 11.9043V19.1016C17.129 19.3685 17.0655 19.5655 16.9386 19.6924C16.8117 19.8193 16.618 19.8828 16.3575 19.8828H6.86535ZM4.44348 4.47266H5.95715V2.96875C5.95715 2.5586 6.05969 2.25261 6.26477 2.05078C6.46985 1.84896 6.77746 1.74805 7.18762 1.74805H16.0255C16.4357 1.74805 16.7433 1.84896 16.9484 2.05078C17.1535 2.25261 17.256 2.5586 17.256 2.96875V4.45312H18.7697V3.07617C18.7697 2.12565 18.5369 1.42904 18.0714 0.986328C17.6059 0.54362 16.9175 0.322266 16.006 0.322266H7.20715C6.34778 0.322266 5.67232 0.54362 5.18078 0.986328C4.68925 1.42904 4.44348 2.12565 4.44348 3.07617V4.47266ZM8.22277 14.4043H15.0197C15.189 14.4043 15.3306 14.3457 15.4445 14.2285C15.5584 14.1113 15.6154 13.9648 15.6154 13.7891C15.6154 13.6263 15.5584 13.4879 15.4445 13.374C15.3306 13.2601 15.189 13.2031 15.0197 13.2031H8.22277C8.04699 13.2031 7.90051 13.2601 7.78332 13.374C7.66614 13.4879 7.60754 13.6263 7.60754 13.7891C7.60754 13.9648 7.66614 14.1113 7.78332 14.2285C7.90051 14.3457 8.04699 14.4043 8.22277 14.4043ZM8.22277 17.8125H15.0197C15.189 17.8125 15.3306 17.7555 15.4445 17.6416C15.5584 17.5277 15.6154 17.3861 15.6154 17.2168C15.6154 17.0475 15.5584 16.9043 15.4445 16.7871C15.3306 16.6699 15.189 16.6113 15.0197 16.6113H8.22277C8.04699 16.6113 7.90051 16.6699 7.78332 16.7871C7.66614 16.9043 7.60754 17.0475 7.60754 17.2168C7.60754 17.3861 7.66614 17.5277 7.78332 17.6416C7.90051 17.7555 8.04699 17.8125 8.22277 17.8125ZM16.338 7.38281C16.338 7.72786 16.4584 8.01758 16.6993 8.25195C16.9402 8.48633 17.23 8.60026 17.5685 8.59375C17.894 8.59375 18.1772 8.47656 18.4181 8.24219C18.659 8.00781 18.7794 7.72135 18.7794 7.38281C18.7794 7.05729 18.659 6.77409 18.4181 6.5332C18.1772 6.29232 17.894 6.17188 17.5685 6.17188C17.23 6.17188 16.9402 6.29232 16.6993 6.5332C16.4584 6.77409 16.338 7.05729 16.338 7.38281Z" fill="black" fill-opacity="0.85"/>
</g>
<defs>
<clipPath id="clip0_2_5935">
<rect width="22.0605" height="21.3574" fill="white" transform="translate(0.576294)"/>
</clipPath>
</defs>
</svg>
