<svg width="21" height="20" viewBox="0 0 21 20" fill="none" xmlns="http://www.w3.org/2000/svg">
<g clip-path="url(#clip0_2_17312)">
<path d="M10.2649 14.7656C10.9419 14.7656 11.5816 14.6354 12.1839 14.375C12.7861 14.1146 13.3167 13.7565 13.7757 13.3008C14.2346 12.8451 14.5943 12.3161 14.8548 11.7139C15.1152 11.1116 15.2454 10.472 15.2454 9.79492C15.2454 9.11133 15.1152 8.47005 14.8548 7.87109C14.5943 7.27214 14.2346 6.74317 13.7757 6.28418C13.3167 5.82519 12.7861 5.46549 12.1839 5.20508C11.5816 4.94466 10.9419 4.81445 10.2649 4.81445C9.58781 4.81445 8.94816 4.94466 8.34595 5.20508C7.74374 5.46549 7.21476 5.82519 6.75903 6.28418C6.3033 6.74317 5.94523 7.27214 5.68481 7.87109C5.4244 8.47005 5.29419 9.11133 5.29419 9.79492C5.29419 10.472 5.4244 11.1116 5.68481 11.7139C5.94523 12.3161 6.3033 12.8451 6.75903 13.3008C7.21476 13.7565 7.74374 14.1146 8.34595 14.375C8.94816 14.6354 9.58781 14.7656 10.2649 14.7656ZM1.61255 10.9375C1.92505 10.9375 2.1936 10.8252 2.41821 10.6006C2.64282 10.376 2.75513 10.1074 2.75513 9.79492C2.75513 9.48242 2.64282 9.21387 2.41821 8.98926C2.1936 8.76465 1.92505 8.65234 1.61255 8.65234C1.30005 8.65234 1.03149 8.76465 0.806885 8.98926C0.582275 9.21387 0.469971 9.48242 0.469971 9.79492C0.469971 10.1074 0.582275 10.376 0.806885 10.6006C1.03149 10.8252 1.30005 10.9375 1.61255 10.9375ZM4.14185 4.81445C4.45434 4.81445 4.7229 4.70215 4.94751 4.47754C5.17212 4.25293 5.28442 3.98437 5.28442 3.67188C5.28442 3.35937 5.17212 3.09082 4.94751 2.86621C4.7229 2.6416 4.45434 2.5293 4.14185 2.5293C3.82934 2.5293 3.56079 2.6416 3.33618 2.86621C3.11157 3.09082 2.99927 3.35937 2.99927 3.67188C2.99927 3.98437 3.11157 4.25293 3.33618 4.47754C3.56079 4.70215 3.82934 4.81445 4.14185 4.81445ZM10.2649 2.28516C10.5774 2.28516 10.846 2.17285 11.0706 1.94824C11.2952 1.72363 11.4075 1.45508 11.4075 1.14258C11.4075 0.830079 11.2952 0.561523 11.0706 0.336914C10.846 0.112305 10.5774 0 10.2649 0C9.95239 0 9.68384 0.112305 9.45923 0.336914C9.23462 0.561523 9.12231 0.830079 9.12231 1.14258C9.12231 1.45508 9.23462 1.72363 9.45923 1.94824C9.68384 2.17285 9.95239 2.28516 10.2649 2.28516ZM16.388 4.81445C16.7004 4.81445 16.969 4.70215 17.1936 4.47754C17.4182 4.25293 17.5305 3.98437 17.5305 3.67188C17.5305 3.35937 17.4182 3.09082 17.1936 2.86621C16.969 2.6416 16.7004 2.5293 16.388 2.5293C16.0754 2.5293 15.8069 2.6416 15.5823 2.86621C15.3577 3.09082 15.2454 3.35937 15.2454 3.67188C15.2454 3.98437 15.3577 4.25293 15.5823 4.47754C15.8069 4.70215 16.0754 4.81445 16.388 4.81445ZM18.9173 10.9375C19.2297 10.9375 19.4983 10.8252 19.7229 10.6006C19.9475 10.376 20.0598 10.1074 20.0598 9.79492C20.0598 9.48242 19.9475 9.21387 19.7229 8.98926C19.4983 8.76465 19.2297 8.65234 18.9173 8.65234C18.6047 8.65234 18.3362 8.76465 18.1116 8.98926C17.887 9.21387 17.7747 9.48242 17.7747 9.79492C17.7747 10.1074 17.887 10.376 18.1116 10.6006C18.3362 10.8252 18.6047 10.9375 18.9173 10.9375ZM16.388 17.0605C16.7004 17.0605 16.969 16.9482 17.1936 16.7236C17.4182 16.499 17.5305 16.2305 17.5305 15.918C17.5305 15.6055 17.4182 15.3369 17.1936 15.1123C16.969 14.8877 16.7004 14.7754 16.388 14.7754C16.0754 14.7754 15.8069 14.8877 15.5823 15.1123C15.3577 15.3369 15.2454 15.6055 15.2454 15.918C15.2454 16.2305 15.3577 16.499 15.5823 16.7236C15.8069 16.9482 16.0754 17.0605 16.388 17.0605ZM10.2649 19.5898C10.5774 19.5898 10.846 19.4775 11.0706 19.2529C11.2952 19.0283 11.4075 18.7598 11.4075 18.4473C11.4075 18.1348 11.2952 17.8662 11.0706 17.6416C10.846 17.417 10.5774 17.3047 10.2649 17.3047C9.95239 17.3047 9.68384 17.417 9.45923 17.6416C9.23462 17.8662 9.12231 18.1348 9.12231 18.4473C9.12231 18.7598 9.23462 19.0283 9.45923 19.2529C9.68384 19.4775 9.95239 19.5898 10.2649 19.5898ZM4.14185 17.0605C4.45434 17.0605 4.7229 16.9482 4.94751 16.7236C5.17212 16.499 5.28442 16.2305 5.28442 15.918C5.28442 15.6055 5.17212 15.3369 4.94751 15.1123C4.7229 14.8877 4.45434 14.7754 4.14185 14.7754C3.82934 14.7754 3.56079 14.8877 3.33618 15.1123C3.11157 15.3369 2.99927 15.6055 2.99927 15.918C2.99927 16.2305 3.11157 16.499 3.33618 16.7236C3.56079 16.9482 3.82934 17.0605 4.14185 17.0605Z" fill="black" fill-opacity="0.85"/>
</g>
<defs>
<clipPath id="clip0_2_17312">
<rect width="19.5898" height="19.5996" fill="white" transform="translate(0.469971)"/>
</clipPath>
</defs>
</svg>
