<svg width="23" height="22" viewBox="0 0 23 22" fill="none" xmlns="http://www.w3.org/2000/svg">
<g clip-path="url(#clip0_2_17316)">
<path d="M11.5063 15.5859C12.1834 15.5859 12.8231 15.4557 13.4253 15.1953C14.0275 14.9349 14.5565 14.5752 15.0122 14.1162C15.468 13.6572 15.826 13.1282 16.0864 12.5293C16.3468 11.9304 16.477 11.2891 16.477 10.6055C16.477 9.92189 16.3468 9.27897 16.0864 8.67676C15.826 8.07455 15.468 7.54395 15.0122 7.08496C14.5565 6.62597 14.0275 6.26627 13.4253 6.00586C12.8231 5.74544 12.1834 5.61523 11.5063 5.61523C10.8228 5.61523 10.1815 5.74544 9.58252 6.00586C8.98356 6.26627 8.45459 6.62597 7.9956 7.08496C7.53662 7.54395 7.17692 8.07455 6.9165 8.67676C6.65609 9.27897 6.52588 9.92189 6.52588 10.6055C6.52588 11.2891 6.65609 11.9304 6.9165 12.5293C7.17692 13.1282 7.53662 13.6572 7.9956 14.1162C8.45459 14.5752 8.98356 14.9349 9.58252 15.1953C10.1815 15.4557 10.8228 15.5859 11.5063 15.5859ZM11.5063 14.0918C10.8683 14.0918 10.2856 13.9339 9.7583 13.6182C9.23096 13.3024 8.80778 12.8808 8.48877 12.3535C8.16976 11.8262 8.01025 11.2435 8.01025 10.6055C8.01025 9.96746 8.16976 9.38477 8.48877 8.85742C8.80778 8.33008 9.23096 7.9069 9.7583 7.58789C10.2856 7.26888 10.8683 7.10938 11.5063 7.10938C12.1443 7.10938 12.727 7.26888 13.2544 7.58789C13.7818 7.9069 14.2033 8.33008 14.519 8.85742C14.8348 9.38477 14.9926 9.96746 14.9926 10.6055C14.9926 11.2435 14.8348 11.8262 14.519 12.3535C14.2033 12.8808 13.7818 13.3024 13.2544 13.6182C12.727 13.9339 12.1443 14.0918 11.5063 14.0918ZM12.3657 0.859375C12.3657 0.625 12.2811 0.423177 12.1118 0.253906C11.9426 0.0846353 11.7407 0 11.5063 0C11.2785 0 11.0799 0.0846353 10.9106 0.253906C10.7414 0.423177 10.6567 0.625 10.6567 0.859375V2.91016C10.6567 3.13802 10.7414 3.33659 10.9106 3.50586C11.0799 3.67513 11.2785 3.75977 11.5063 3.75977C11.7407 3.75977 11.9426 3.67513 12.1118 3.50586C12.2811 3.33659 12.3657 3.13802 12.3657 2.91016V0.859375ZM16.3305 4.58008C16.1678 4.74284 16.0864 4.94303 16.0864 5.18066C16.0864 5.41829 16.1678 5.61849 16.3305 5.78125C16.4933 5.94401 16.6935 6.02702 16.9311 6.03027C17.1688 6.03353 17.3723 5.95052 17.5415 5.78125L18.9965 4.32617C19.1593 4.16341 19.2407 3.96159 19.2407 3.7207C19.2407 3.47982 19.1593 3.278 18.9965 3.11523C18.8338 2.95247 18.6352 2.87109 18.4008 2.87109C18.1665 2.87109 17.9679 2.95247 17.8051 3.11523L16.3305 4.58008ZM21.2231 11.4551C21.4575 11.4551 21.6594 11.3705 21.8286 11.2012C21.9979 11.0319 22.0825 10.8334 22.0825 10.6055C22.0825 10.3711 21.9979 10.1709 21.8286 10.0049C21.6594 9.83887 21.4575 9.75586 21.2231 9.75586H19.1821C18.9543 9.75586 18.7557 9.83887 18.5864 10.0049C18.4172 10.1709 18.3325 10.3711 18.3325 10.6055C18.3325 10.8334 18.4172 11.0319 18.5864 11.2012C18.7557 11.3705 18.9543 11.4551 19.1821 11.4551H21.2231ZM17.5317 15.4395C17.369 15.2767 17.1688 15.1953 16.9311 15.1953C16.6935 15.1953 16.4933 15.2767 16.3305 15.4395C16.1678 15.6022 16.0864 15.8008 16.0864 16.0352C16.0864 16.2695 16.1678 16.4713 16.3305 16.6406L17.8051 18.1055C17.9679 18.2682 18.1665 18.348 18.4008 18.3447C18.6352 18.3414 18.8338 18.2584 18.9965 18.0957C19.1593 17.933 19.2407 17.7328 19.2407 17.4951C19.2407 17.2575 19.1593 17.0573 18.9965 16.8945L17.5317 15.4395ZM12.3657 18.3008C12.3657 18.0664 12.2811 17.8646 12.1118 17.6953C11.9426 17.526 11.7407 17.4414 11.5063 17.4414C11.2785 17.4414 11.0799 17.526 10.9106 17.6953C10.7414 17.8646 10.6567 18.0664 10.6567 18.3008V20.3516C10.6567 20.5795 10.7414 20.778 10.9106 20.9473C11.0799 21.1166 11.2785 21.2012 11.5063 21.2012C11.7407 21.2012 11.9426 21.1166 12.1118 20.9473C12.2811 20.778 12.3657 20.5795 12.3657 20.3516V18.3008ZM4.01611 16.8848C3.85335 17.0475 3.77197 17.2477 3.77197 17.4854C3.77197 17.723 3.8501 17.9232 4.00635 18.0859C4.16911 18.2487 4.37093 18.3317 4.61182 18.335C4.8527 18.3382 5.05452 18.2584 5.21728 18.0957L6.67236 16.6406C6.83512 16.4779 6.91813 16.2777 6.92139 16.04C6.92464 15.8024 6.84489 15.6022 6.68213 15.4395C6.51937 15.2767 6.31755 15.1953 6.07666 15.1953C5.83577 15.1953 5.63395 15.2767 5.47119 15.4395L4.01611 16.8848ZM1.78955 9.75586C1.56169 9.75586 1.36312 9.83887 1.19385 10.0049C1.02458 10.1709 0.939941 10.3711 0.939941 10.6055C0.939941 10.8334 1.02458 11.0319 1.19385 11.2012C1.36312 11.3705 1.56169 11.4551 1.78955 11.4551H3.83056C4.06494 11.4551 4.26676 11.3705 4.43603 11.2012C4.6053 11.0319 4.68994 10.8334 4.68994 10.6055C4.68994 10.3711 4.6053 10.1709 4.43603 10.0049C4.26676 9.83887 4.06494 9.75586 3.83056 9.75586H1.78955ZM5.47119 5.78125C5.63395 5.94401 5.83415 6.02539 6.07178 6.02539C6.30941 6.02539 6.5096 5.94401 6.67236 5.78125C6.83512 5.625 6.91813 5.42481 6.92139 5.18066C6.92464 4.93652 6.84489 4.73633 6.68213 4.58008L5.22705 3.11523C5.0708 2.95898 4.87386 2.87923 4.63623 2.87598C4.3986 2.87272 4.19515 2.95247 4.02588 3.11523C3.86312 3.278 3.78174 3.47819 3.78174 3.71582C3.78174 3.95345 3.85986 4.15365 4.01611 4.31641L5.47119 5.78125Z" fill="black" fill-opacity="0.85"/>
</g>
<defs>
<clipPath id="clip0_2_17316">
<rect width="21.1426" height="21.2207" fill="white" transform="translate(0.939941)"/>
</clipPath>
</defs>
</svg>
