<svg width="23" height="22" viewBox="0 0 23 22" fill="none" xmlns="http://www.w3.org/2000/svg">
<g clip-path="url(#clip0_2_17320)">
<path d="M11.5291 5.61523C10.8455 5.61523 10.2042 5.74544 9.60529 6.00586C9.00633 6.26627 8.47735 6.62597 8.01837 7.08496C7.55939 7.54395 7.19969 8.07455 6.93927 8.67676C6.67885 9.27897 6.54865 9.92189 6.54865 10.6055C6.54865 11.2891 6.67885 11.9304 6.93927 12.5293C7.19969 13.1282 7.55939 13.6572 8.01837 14.1162C8.47735 14.5752 9.00633 14.9349 9.60529 15.1953C10.2042 15.4557 10.8455 15.5859 11.5291 15.5859C12.2062 15.5859 12.8458 15.4557 13.4481 15.1953C14.0503 14.9349 14.5793 14.5752 15.035 14.1162C15.4907 13.6572 15.8488 13.1282 16.1092 12.5293C16.3696 11.9304 16.4998 11.2891 16.4998 10.6055C16.4998 9.92189 16.3696 9.27897 16.1092 8.67676C15.8488 8.07455 15.4907 7.54395 15.035 7.08496C14.5793 6.62597 14.0503 6.26627 13.4481 6.00586C12.8458 5.74544 12.2062 5.61523 11.5291 5.61523ZM12.3885 0.859375C12.3885 0.625 12.3039 0.423177 12.1346 0.253906C11.9653 0.0846353 11.7635 0 11.5291 0C11.3012 0 11.1027 0.0846353 10.9334 0.253906C10.7641 0.423177 10.6795 0.625 10.6795 0.859375V2.91016C10.6795 3.13802 10.7641 3.33659 10.9334 3.50586C11.1027 3.67513 11.3012 3.75977 11.5291 3.75977C11.7635 3.75977 11.9653 3.67513 12.1346 3.50586C12.3039 3.33659 12.3885 3.13802 12.3885 2.91016V0.859375ZM16.3533 4.58008C16.1906 4.74284 16.1092 4.94303 16.1092 5.18066C16.1092 5.41829 16.1906 5.61849 16.3533 5.78125C16.5161 5.94401 16.7163 6.02702 16.9539 6.03027C17.1916 6.03353 17.395 5.95052 17.5643 5.78125L19.0193 4.32617C19.1821 4.16341 19.2635 3.96159 19.2635 3.7207C19.2635 3.47982 19.1821 3.278 19.0193 3.11523C18.8566 2.95247 18.658 2.87109 18.4236 2.87109C18.1893 2.87109 17.9907 2.95247 17.8279 3.11523L16.3533 4.58008ZM21.2459 11.4551C21.4803 11.4551 21.6821 11.3705 21.8514 11.2012C22.0207 11.0319 22.1053 10.8334 22.1053 10.6055C22.1053 10.3711 22.0207 10.1709 21.8514 10.0049C21.6821 9.83887 21.4803 9.75586 21.2459 9.75586H19.2049C18.977 9.75586 18.7785 9.83887 18.6092 10.0049C18.4399 10.1709 18.3553 10.3711 18.3553 10.6055C18.3553 10.8334 18.4399 11.0319 18.6092 11.2012C18.7785 11.3705 18.977 11.4551 19.2049 11.4551H21.2459ZM17.5545 15.4395C17.3918 15.2767 17.1916 15.1953 16.9539 15.1953C16.7163 15.1953 16.5161 15.2767 16.3533 15.4395C16.1906 15.6022 16.1092 15.8008 16.1092 16.0352C16.1092 16.2695 16.1906 16.4713 16.3533 16.6406L17.8279 18.1055C17.9907 18.2682 18.1893 18.348 18.4236 18.3447C18.658 18.3414 18.8566 18.2584 19.0193 18.0957C19.1821 17.933 19.2635 17.7328 19.2635 17.4951C19.2635 17.2575 19.1821 17.0573 19.0193 16.8945L17.5545 15.4395ZM12.3885 18.3008C12.3885 18.0664 12.3039 17.8646 12.1346 17.6953C11.9653 17.526 11.7635 17.4414 11.5291 17.4414C11.3012 17.4414 11.1027 17.526 10.9334 17.6953C10.7641 17.8646 10.6795 18.0664 10.6795 18.3008V20.3516C10.6795 20.5795 10.7641 20.778 10.9334 20.9473C11.1027 21.1166 11.3012 21.2012 11.5291 21.2012C11.7635 21.2012 11.9653 21.1166 12.1346 20.9473C12.3039 20.778 12.3885 20.5795 12.3885 20.3516V18.3008ZM4.03888 16.8848C3.87612 17.0475 3.79474 17.2477 3.79474 17.4854C3.79474 17.723 3.87286 17.9232 4.02912 18.0859C4.19188 18.2487 4.3937 18.3317 4.63459 18.335C4.87547 18.3382 5.07729 18.2584 5.24005 18.0957L6.69513 16.6406C6.85789 16.4779 6.9409 16.2777 6.94416 16.04C6.94741 15.8024 6.86766 15.6022 6.7049 15.4395C6.54214 15.2767 6.34031 15.1953 6.09943 15.1953C5.85854 15.1953 5.65672 15.2767 5.49396 15.4395L4.03888 16.8848ZM1.81232 9.75586C1.58445 9.75586 1.38588 9.83887 1.21661 10.0049C1.04734 10.1709 0.962708 10.3711 0.962708 10.6055C0.962708 10.8334 1.04734 11.0319 1.21661 11.2012C1.38588 11.3705 1.58445 11.4551 1.81232 11.4551H3.85333C4.08771 11.4551 4.28953 11.3705 4.4588 11.2012C4.62807 11.0319 4.71271 10.8334 4.71271 10.6055C4.71271 10.3711 4.62807 10.1709 4.4588 10.0049C4.28953 9.83887 4.08771 9.75586 3.85333 9.75586H1.81232ZM5.49396 5.78125C5.65672 5.94401 5.85691 6.02539 6.09455 6.02539C6.33217 6.02539 6.53237 5.94401 6.69513 5.78125C6.85789 5.625 6.9409 5.42481 6.94416 5.18066C6.94741 4.93652 6.86766 4.73633 6.7049 4.58008L5.24982 3.11523C5.09356 2.95898 4.89662 2.87923 4.659 2.87598C4.42136 2.87272 4.21791 2.95247 4.04865 3.11523C3.88589 3.278 3.80451 3.47819 3.80451 3.71582C3.80451 3.95345 3.88263 4.15365 4.03888 4.31641L5.49396 5.78125Z" fill="#FFCC00"/>
</g>
<defs>
<clipPath id="clip0_2_17320">
<rect width="21.1426" height="21.2207" fill="white" transform="translate(0.962708)"/>
</clipPath>
</defs>
</svg>
