<svg width="31" height="16" viewBox="0 0 31 16" fill="none" xmlns="http://www.w3.org/2000/svg">
<g clip-path="url(#clip0_2_14994)">
<path d="M5.58588 15.0586C5.8528 15.0586 6.06765 14.9788 6.23041 14.8193C6.39317 14.6598 6.47455 14.4434 6.47455 14.1699V1.68945C6.47455 1.37044 6.3834 1.1263 6.20111 0.957031C6.01882 0.78776 5.77468 0.703125 5.46869 0.703125C5.24733 0.703125 5.05853 0.737305 4.90229 0.805664C4.74603 0.874023 4.567 0.973307 4.36518 1.10352L1.11322 3.21289C0.774678 3.43424 0.605408 3.70117 0.605408 4.01367C0.605408 4.2155 0.672139 4.38151 0.805603 4.51172C0.939067 4.64193 1.11322 4.70703 1.32806 4.70703C1.45827 4.70703 1.56407 4.68913 1.64545 4.65332C1.72683 4.61751 1.80983 4.57031 1.89447 4.51172L4.67768 2.76367H4.71674V14.1699C4.71674 14.4434 4.79323 14.6598 4.94623 14.8193C5.09922 14.9788 5.31244 15.0586 5.58588 15.0586ZM10.039 14.8633H18.1542C18.4016 14.8633 18.5985 14.7917 18.745 14.6484C18.8915 14.5052 18.9648 14.3164 18.9648 14.082C18.9648 13.8477 18.8915 13.6572 18.745 13.5107C18.5985 13.3642 18.4016 13.291 18.1542 13.291H11.6503V13.2422L15.4687 9.50195C16.2369 8.75326 16.8391 8.10384 17.2753 7.55371C17.7115 7.00358 18.0208 6.49577 18.2031 6.03027C18.3854 5.56478 18.4765 5.08138 18.4765 4.58008C18.4765 3.83138 18.2747 3.15918 17.871 2.56348C17.4674 1.96777 16.9157 1.49577 16.2158 1.14746C15.5159 0.799154 14.7265 0.625 13.8476 0.625C12.8059 0.625 11.8782 0.885417 11.0644 1.40625C10.2506 1.92708 9.69395 2.61719 9.39447 3.47656C9.28379 3.78906 9.22846 4.07226 9.22846 4.32617C9.22846 4.56706 9.29681 4.76237 9.43353 4.91211C9.57025 5.06185 9.75905 5.13672 9.99994 5.13672C10.2278 5.13672 10.3987 5.07975 10.5126 4.96582C10.6266 4.85189 10.7226 4.67448 10.8007 4.43359C10.8398 4.28385 10.887 4.13899 10.9423 3.99902C10.9976 3.85905 11.0644 3.72721 11.1425 3.60352C11.4029 3.16732 11.7659 2.82064 12.2314 2.56348C12.6969 2.30631 13.2356 2.17773 13.8476 2.17773C14.3749 2.17773 14.8534 2.29004 15.2831 2.51465C15.7128 2.73926 16.0546 3.04036 16.3085 3.41797C16.5624 3.79558 16.6894 4.2155 16.6894 4.67773C16.6894 5.04883 16.6243 5.40202 16.4941 5.7373C16.3639 6.07259 16.1263 6.45182 15.7812 6.875C15.4361 7.29818 14.9413 7.82878 14.2968 8.4668L9.7265 13.0371C9.52468 13.2389 9.38308 13.4131 9.3017 13.5596C9.22032 13.7061 9.17963 13.8672 9.17963 14.043C9.17963 14.2969 9.25775 14.4971 9.414 14.6436C9.57025 14.7901 9.77858 14.8633 10.039 14.8633ZM25.2831 15.0781C26.2792 15.0781 27.163 14.8991 27.9345 14.541C28.706 14.1829 29.3131 13.693 29.7558 13.0713C30.1985 12.4496 30.4199 11.7416 30.4199 10.9473C30.4199 9.98373 30.0944 9.20247 29.4433 8.60352C28.7922 8.00456 27.9133 7.66927 26.8066 7.59766V7.55859C27.7311 7.40234 28.4635 7.03125 29.0038 6.44531C29.5442 5.85938 29.8144 5.13347 29.8144 4.26758C29.8144 3.56445 29.6175 2.93945 29.2236 2.39258C28.8297 1.8457 28.2877 1.41439 27.5976 1.09863C26.9075 0.782878 26.1197 0.625 25.2343 0.625C24.5637 0.625 23.9436 0.719401 23.374 0.908203C22.8043 1.09701 22.3079 1.36556 21.8847 1.71387C21.4615 2.06218 21.136 2.48047 20.9081 2.96875C20.817 3.14453 20.7502 3.32031 20.7079 3.49609C20.6656 3.67188 20.6445 3.85417 20.6445 4.04297C20.6445 4.27084 20.7145 4.45638 20.8544 4.59961C20.9944 4.74284 21.1783 4.81445 21.4062 4.81445C21.6275 4.81445 21.7952 4.76562 21.9091 4.66797C22.023 4.57031 22.1158 4.40755 22.1874 4.17969C22.3307 3.75 22.5423 3.38542 22.8222 3.08594C23.1021 2.78646 23.4407 2.55859 23.8378 2.40234C24.2349 2.24609 24.6809 2.16797 25.1757 2.16797C25.7616 2.16797 26.2695 2.264 26.6992 2.45605C27.1289 2.64811 27.4609 2.91829 27.6952 3.2666C27.9296 3.61491 28.0468 4.02344 28.0468 4.49219C28.0468 4.98047 27.9231 5.4069 27.6757 5.77148C27.4283 6.13607 27.0816 6.41927 26.6357 6.62109C26.1897 6.82292 25.677 6.92383 25.0976 6.92383H24.0234C23.789 6.92383 23.6018 6.99056 23.4618 7.12402C23.3219 7.25749 23.2519 7.4349 23.2519 7.65625C23.2519 7.8711 23.3219 8.04688 23.4618 8.18359C23.6018 8.32031 23.789 8.38867 24.0234 8.38867H25.1171C26.1978 8.38867 27.0442 8.61002 27.6562 9.05273C28.2682 9.49544 28.5742 10.1237 28.5742 10.9375C28.5742 11.4388 28.4342 11.8815 28.1542 12.2656C27.8743 12.6497 27.4885 12.9508 26.997 13.1689C26.5055 13.387 25.9374 13.4961 25.2929 13.4961C24.733 13.4961 24.2285 13.4163 23.7792 13.2568C23.33 13.0973 22.9508 12.8662 22.6415 12.5635C22.3323 12.2608 22.1061 11.8945 21.9628 11.4648C21.8847 11.2565 21.7821 11.1019 21.6552 11.001C21.5283 10.9001 21.3606 10.8496 21.1523 10.8496C20.9049 10.8496 20.7047 10.9245 20.5517 11.0742C20.3987 11.2239 20.3222 11.4258 20.3222 11.6797C20.3222 11.849 20.345 12.015 20.3906 12.1777C20.4361 12.3405 20.5045 12.5065 20.5956 12.6758C20.8625 13.1901 21.2239 13.6263 21.6796 13.9844C22.1353 14.3425 22.6676 14.6143 23.2763 14.7998C23.885 14.9853 24.554 15.0781 25.2831 15.0781Z" fill="black" fill-opacity="0.85"/>
</g>
<defs>
<clipPath id="clip0_2_14994">
<rect width="29.8145" height="14.4824" fill="white" transform="translate(0.605408 0.625)"/>
</clipPath>
</defs>
</svg>
