<svg width="21" height="17" viewBox="0 0 21 17" fill="none" xmlns="http://www.w3.org/2000/svg">
<g clip-path="url(#clip0_2_14880)">
<path d="M1.22107 1.47461H19.4144C19.6228 1.47461 19.8002 1.403 19.9466 1.25977C20.0931 1.11654 20.1663 0.940754 20.1663 0.732422C20.1663 0.530599 20.0931 0.358073 19.9466 0.214844C19.8002 0.0716147 19.6228 0 19.4144 0H1.22107C1.01925 0 0.846721 0.0716147 0.703491 0.214844C0.560262 0.358073 0.488647 0.530599 0.488647 0.732422C0.488647 0.940754 0.560262 1.11654 0.703491 1.25977C0.846721 1.403 1.01925 1.47461 1.22107 1.47461ZM4.83435 6.5918H15.8109C16.0193 6.5918 16.195 6.52018 16.3382 6.37695C16.4815 6.23372 16.5531 6.05794 16.5531 5.84961C16.5531 5.64128 16.4815 5.46712 16.3382 5.32715C16.195 5.18718 16.0193 5.11719 15.8109 5.11719H4.83435C4.62601 5.11719 4.45023 5.18718 4.30701 5.32715C4.16378 5.46712 4.09217 5.64128 4.09217 5.84961C4.09217 6.05794 4.16378 6.23372 4.30701 6.37695C4.45023 6.52018 4.62601 6.5918 4.83435 6.5918ZM1.22107 11.709H19.4144C19.6228 11.709 19.8002 11.6374 19.9466 11.4941C20.0931 11.3509 20.1663 11.1751 20.1663 10.9668C20.1663 10.7585 20.0931 10.5843 19.9466 10.4443C19.8002 10.3044 19.6228 10.2344 19.4144 10.2344H1.22107C1.01925 10.2344 0.846721 10.3044 0.703491 10.4443C0.560262 10.5843 0.488647 10.7585 0.488647 10.9668C0.488647 11.1751 0.560262 11.3509 0.703491 11.4941C0.846721 11.6374 1.01925 11.709 1.22107 11.709ZM4.83435 16.8164H15.8109C16.0193 16.8164 16.195 16.7464 16.3382 16.6064C16.4815 16.4665 16.5531 16.2923 16.5531 16.084C16.5531 15.8757 16.4815 15.6999 16.3382 15.5566C16.195 15.4134 16.0193 15.3418 15.8109 15.3418H4.83435C4.62601 15.3418 4.45023 15.4134 4.30701 15.5566C4.16378 15.6999 4.09217 15.8757 4.09217 16.084C4.09217 16.2923 4.16378 16.4665 4.30701 16.6064C4.45023 16.7464 4.62601 16.8164 4.83435 16.8164Z" fill="black" fill-opacity="0.85"/>
</g>
<defs>
<clipPath id="clip0_2_14880">
<rect width="19.6777" height="16.8848" fill="white" transform="translate(0.488647)"/>
</clipPath>
</defs>
</svg>
