<svg width="31" height="15" viewBox="0 0 31 15" fill="none" xmlns="http://www.w3.org/2000/svg">
<g clip-path="url(#clip0_2_14949)">
<path d="M3.4787 14.4239C3.98 14.4239 4.45852 14.3393 4.91425 14.17C5.36997 14.0007 5.77687 13.7614 6.13495 13.4522C6.49302 13.1429 6.76971 12.78 6.96503 12.3633H6.99433V13.6328C6.99433 13.8737 7.0692 14.0674 7.21894 14.2139C7.36868 14.3604 7.55748 14.4336 7.78534 14.4336C8.02622 14.4336 8.21991 14.3587 8.3664 14.209C8.51288 14.0593 8.58612 13.8542 8.58612 13.5938V7.12894C8.58612 6.4193 8.42336 5.8057 8.09784 5.28812C7.77232 4.77054 7.30845 4.36852 6.70624 4.08207C6.10402 3.79561 5.39602 3.65238 4.58222 3.65238C3.66424 3.65238 2.8537 3.83792 2.15058 4.20902C1.44745 4.58011 0.955912 5.07816 0.675964 5.70316C0.623881 5.82034 0.581563 5.9359 0.549011 6.04984C0.516459 6.16377 0.500183 6.27282 0.500183 6.37699C0.500183 6.59183 0.57017 6.76435 0.710144 6.89457C0.850118 7.02477 1.02427 7.08988 1.23261 7.08988C1.38885 7.08988 1.52394 7.05895 1.63788 6.9971C1.75181 6.93525 1.84458 6.83597 1.9162 6.69925C2.18312 6.13935 2.5298 5.72594 2.95624 5.45902C3.38267 5.19209 3.90839 5.05863 4.53339 5.05863C5.28859 5.05863 5.87779 5.25557 6.30097 5.64945C6.72414 6.04333 6.93573 6.57881 6.93573 7.25589V8.08597L3.8205 8.26175C2.59003 8.32685 1.64602 8.62959 0.988464 9.16996C0.330912 9.71032 0.00213623 10.4297 0.00213623 11.3282C0.00213623 11.9467 0.148621 12.4886 0.441589 12.9541C0.734558 13.4196 1.14309 13.781 1.66718 14.0381C2.19126 14.2953 2.7951 14.4239 3.4787 14.4239ZM3.87909 13.0664C3.22805 13.0664 2.7007 12.9037 2.29706 12.5782C1.89341 12.2527 1.69159 11.8262 1.69159 11.2989C1.69159 10.7846 1.89016 10.3679 2.2873 10.0489C2.68443 9.72986 3.26386 9.5443 4.02558 9.49222L6.93573 9.30668V10.3223C6.93573 10.8366 6.79901 11.3021 6.52558 11.7188C6.25214 12.1355 5.8843 12.4642 5.42206 12.7051C4.95982 12.946 4.44549 13.0664 3.87909 13.0664ZM11.3107 14.4239C11.5451 14.4239 11.7388 14.349 11.8917 14.1993C12.0447 14.0495 12.1212 13.8509 12.1212 13.6036V12.1973H12.1505C12.4696 12.8874 12.9367 13.4327 13.5519 13.833C14.1672 14.2334 14.8752 14.4336 15.6759 14.4336C16.5679 14.4336 17.3442 14.2106 18.005 13.7647C18.6658 13.3187 19.1802 12.6921 19.548 11.8848C19.9159 11.0775 20.0998 10.1303 20.0998 9.043C20.0998 7.95576 19.9159 7.00849 19.548 6.20121C19.1802 5.39391 18.6658 4.76728 18.005 4.32132C17.3442 3.87536 16.5744 3.65238 15.6955 3.65238C14.9077 3.65238 14.2062 3.8542 13.591 4.25785C12.9758 4.66149 12.5184 5.20186 12.2189 5.87894H12.1701V0.888702C12.1701 0.621776 12.0936 0.410187 11.9406 0.253937C11.7876 0.0976869 11.5907 0.0195618 11.3498 0.0195618C11.1024 0.0195618 10.9022 0.0976869 10.7492 0.253937C10.5962 0.410187 10.5197 0.621776 10.5197 0.888702V13.6036C10.5197 13.8575 10.593 14.0576 10.7394 14.2041C10.8859 14.3506 11.0763 14.4239 11.3107 14.4239ZM15.3146 13.0078C14.6962 13.0078 14.1509 12.8434 13.6789 12.5147C13.2069 12.1859 12.8375 11.7253 12.5705 11.1328C12.3036 10.5404 12.1701 9.84705 12.1701 9.05277C12.1701 8.25849 12.3052 7.56351 12.5753 6.96781C12.8455 6.3721 13.2166 5.90986 13.6886 5.58109C14.1606 5.25231 14.7026 5.08792 15.3146 5.08792C15.9462 5.08792 16.493 5.24905 16.9552 5.57132C17.4175 5.89358 17.774 6.35094 18.0246 6.94339C18.2752 7.53584 18.4005 8.23571 18.4005 9.043C18.4005 9.8568 18.2736 10.5599 18.0197 11.1524C17.7658 11.7448 17.4077 12.2021 16.9455 12.5244C16.4833 12.8467 15.9396 13.0078 15.3146 13.0078ZM26.0373 14.4336C26.6753 14.4336 27.2726 14.3246 27.8292 14.1065C28.3859 13.8884 28.8661 13.5889 29.2697 13.208C29.6733 12.8272 29.9695 12.3861 30.1583 11.8848C30.1844 11.8067 30.2056 11.7269 30.2218 11.6455C30.2381 11.5642 30.2462 11.4909 30.2462 11.4258C30.2462 11.2175 30.1795 11.0466 30.046 10.9131C29.9126 10.7796 29.7417 10.7129 29.5333 10.7129C29.3511 10.7129 29.203 10.7552 29.089 10.8399C28.9751 10.9245 28.8628 11.0742 28.7521 11.2891C28.4982 11.8425 28.1483 12.2673 27.7023 12.5635C27.2563 12.8597 26.7046 13.0078 26.047 13.0078C25.09 13.0078 24.3234 12.653 23.7472 11.9434C23.1711 11.2337 22.883 10.2702 22.883 9.05277C22.883 7.84183 23.1727 6.87666 23.7521 6.15726C24.3315 5.43786 25.0965 5.07816 26.047 5.07816C26.672 5.07816 27.2108 5.22464 27.6632 5.51761C28.1157 5.81058 28.4722 6.24352 28.7326 6.81644C28.8433 7.02477 28.954 7.16963 29.0646 7.25101C29.1753 7.33239 29.3218 7.37308 29.5041 7.37308C29.7125 7.37308 29.8833 7.3096 30.0167 7.18265C30.1502 7.05569 30.2169 6.8848 30.2169 6.66996C30.2169 6.61136 30.2088 6.54789 30.1925 6.47953C30.1763 6.41117 30.1616 6.34443 30.1486 6.27933C29.9858 5.77803 29.7043 5.33044 29.3039 4.93656C28.9035 4.54268 28.4185 4.23018 27.8488 3.99906C27.2792 3.76794 26.6656 3.65238 26.008 3.65238C25.038 3.65238 24.1916 3.87699 23.4689 4.32621C22.7463 4.77542 22.1864 5.4053 21.7892 6.21585C21.3921 7.0264 21.1935 7.97529 21.1935 9.06253C21.1935 10.1563 21.3937 11.1052 21.7941 11.9092C22.1945 12.7133 22.7577 13.335 23.4835 13.7744C24.2095 14.2139 25.0607 14.4336 26.0373 14.4336Z" fill="black" fill-opacity="0.85"/>
</g>
<defs>
<clipPath id="clip0_2_14949">
<rect width="30.2441" height="14.4238" fill="white" transform="translate(0.00213623 0.00979614)"/>
</clipPath>
</defs>
</svg>
