<svg width="20" height="24" viewBox="0 0 20 24" fill="none" xmlns="http://www.w3.org/2000/svg">
<g clip-path="url(#clip0_2_2893)">
<path d="M5.76684 21.5039H15.054C15.6595 21.5039 16.1363 21.3411 16.4846 21.0156C16.8329 20.6901 17.0201 20.2246 17.0462 19.6191L17.6712 5.35156H19.136C19.3378 5.35156 19.5103 5.27832 19.6536 5.13184C19.7968 4.98535 19.8684 4.8112 19.8684 4.60938C19.8684 4.40755 19.7968 4.23503 19.6536 4.0918C19.5103 3.94857 19.3378 3.87695 19.136 3.87695H1.68481C1.4895 3.87695 1.3186 3.95019 1.17212 4.09668C1.02563 4.24317 0.952393 4.41407 0.952393 4.60938C0.952393 4.8112 1.02563 4.98535 1.17212 5.13184C1.3186 5.27832 1.4895 5.35156 1.68481 5.35156H3.15942L3.78442 19.6191C3.81046 20.2246 3.99764 20.6901 4.34594 21.0156C4.69426 21.3411 5.16789 21.5039 5.76684 21.5039ZM7.31958 18.7109C7.1438 18.7109 6.99895 18.6588 6.88501 18.5547C6.77108 18.4505 6.71411 18.3105 6.71411 18.1348L6.41137 7.5C6.41137 7.33073 6.46671 7.19238 6.57739 7.08496C6.68807 6.97754 6.83781 6.92383 7.02661 6.92383C7.19588 6.92383 7.33748 6.97591 7.45141 7.08008C7.56535 7.18425 7.62557 7.32096 7.63208 7.49023L7.92505 18.1348C7.93156 18.3041 7.87948 18.4424 7.7688 18.5498C7.65812 18.6572 7.50838 18.7109 7.31958 18.7109ZM10.4153 18.7109C10.2265 18.7109 10.0735 18.6572 9.9563 18.5498C9.83911 18.4424 9.78051 18.3041 9.78051 18.1348V7.5C9.78051 7.33073 9.83911 7.19238 9.9563 7.08496C10.0735 6.97754 10.2265 6.92383 10.4153 6.92383C10.5976 6.92383 10.7473 6.97754 10.8645 7.08496C10.9817 7.19238 11.0403 7.33073 11.0403 7.5V18.1348C11.0403 18.3041 10.9817 18.4424 10.8645 18.5498C10.7473 18.6572 10.5976 18.7109 10.4153 18.7109ZM13.5012 18.7109C13.3124 18.7109 13.1627 18.6572 13.052 18.5498C12.9413 18.4424 12.8893 18.3041 12.8958 18.1348L13.1887 7.5C13.1952 7.32422 13.2555 7.18425 13.3694 7.08008C13.4833 6.97591 13.6249 6.92383 13.7942 6.92383C13.983 6.92383 14.1327 6.97754 14.2434 7.08496C14.3541 7.19238 14.4094 7.33073 14.4094 7.5L14.1067 18.1348C14.1067 18.3105 14.0497 18.4505 13.9358 18.5547C13.8219 18.6588 13.677 18.7109 13.5012 18.7109ZM6.02075 4.18945H7.78833V2.48047C7.78833 2.23308 7.86646 2.03451 8.0227 1.88477C8.17896 1.73503 8.39055 1.66016 8.65747 1.66016H12.1536C12.4205 1.66016 12.6321 1.73503 12.7883 1.88477C12.9446 2.03451 13.0227 2.23308 13.0227 2.48047V4.18945H14.7805V2.38281C14.7805 1.64714 14.5543 1.06608 14.1018 0.639648C13.6493 0.213216 13.0325 0 12.2512 0H8.55005C7.7688 0 7.15194 0.213216 6.69946 0.639648C6.24699 1.06608 6.02075 1.64714 6.02075 2.38281V4.18945Z" fill="#FF3B30"/>
</g>
<defs>
<clipPath id="clip0_2_2893">
<rect width="18.916" height="23.7012" fill="white" transform="translate(0.952393)"/>
</clipPath>
</defs>
</svg>
