<svg width="13" height="21" viewBox="0 0 13 21" fill="none" xmlns="http://www.w3.org/2000/svg">
<g clip-path="url(#clip0_2_14966)">
<path d="M1.22223 20.4688H11.4371C11.5999 20.4688 11.7382 20.4135 11.8522 20.3028C11.9661 20.1921 12.0231 20.0554 12.0231 19.8926C12.0231 19.7233 11.9661 19.5834 11.8522 19.4727C11.7382 19.362 11.5999 19.3067 11.4371 19.3067H1.22223C1.06598 19.3067 0.930888 19.362 0.816955 19.4727C0.703023 19.5834 0.646057 19.7233 0.646057 19.8926C0.646057 20.0554 0.703023 20.1921 0.816955 20.3028C0.930888 20.4135 1.06598 20.4688 1.22223 20.4688Z" fill="#FF3B30"/>
<path d="M6.32965 17.4707C7.50153 17.4707 8.5139 17.2526 9.36676 16.8164C10.2196 16.3802 10.8756 15.7731 11.3346 14.9952C11.7936 14.2172 12.0231 13.3171 12.0231 12.295V3.90628C12.0231 3.63284 11.94 3.41312 11.774 3.2471C11.608 3.08108 11.385 2.99808 11.1051 2.99808C10.8316 2.99808 10.6151 3.08108 10.4556 3.2471C10.2961 3.41312 10.2164 3.63284 10.2164 3.90628V12.1485C10.2164 13.2357 9.87457 14.1179 9.19098 14.795C8.50738 15.4721 7.55361 15.8106 6.32965 15.8106C5.51585 15.8106 4.81923 15.656 4.23981 15.3467C3.66038 15.0374 3.21767 14.6094 2.91168 14.0625C2.60569 13.5156 2.4527 12.8776 2.4527 12.1485V3.90628C2.4527 3.63284 2.36969 3.41312 2.20368 3.2471C2.03766 3.08108 1.81467 2.99808 1.53473 2.99808C1.26129 2.99808 1.04482 3.08108 0.885315 3.2471C0.72581 3.41312 0.646057 3.63284 0.646057 3.90628V12.295C0.646057 13.3171 0.875549 14.2172 1.33453 14.9952C1.79352 15.7731 2.44781 16.3802 3.29743 16.8164C4.14703 17.2526 5.15777 17.4707 6.32965 17.4707Z" fill="black" fill-opacity="0.85"/>
</g>
<defs>
<clipPath id="clip0_2_14966">
<rect width="11.377" height="20.459" fill="white" transform="translate(0.646057 0.00979614)"/>
</clipPath>
</defs>
</svg>
